<?xml version="1.0" encoding="utf-8"?>
<!-- Generator: Adobe Illustrator 14.0.0, SVG Export Plug-In . SVG Version: 6.00 Build 43363)  -->
<!DOCTYPE svg PUBLIC "-//W3C//DTD SVG 1.1//EN" "http://www.w3.org/Graphics/SVG/1.1/DTD/svg11.dtd">
<svg version="1.1" id="Ebene_1" xmlns="http://www.w3.org/2000/svg" xmlns:xlink="http://www.w3.org/1999/xlink" x="0px" y="0px"
	 width="552.756px" height="141.732px" viewBox="0 0 552.756 141.732" enable-background="new 0 0 552.756 141.732"
	 xml:space="preserve">
<path fill="#FFFFFF" d="M217.817,37.979c1.895-0.022,6.061-0.336,9.398,3.063c3.341,3.401,3.527,7.623,3.527,9.702
	c0,5.795-4.76,10.135-10.871,10.135c-2.521,0-5.311-0.43-6.229-0.98c-0.311-0.187-0.434-0.432-0.434-0.737V39.084
	c0-0.368,0.188-0.611,0.492-0.734C214.319,38.163,215.976,38,217.817,37.979z M394.562,38.628l7.729,0.124
	c5.886,0.123,7.357,1.535,7.54,3.378l0.062,0.678c0.063,0.857,0.188,1.044,0.507,1.044c0.25,0,0.437-0.245,0.437-0.8
	c0-0.676,0.189-4.915,0.189-6.758c0-0.368,0-0.735-0.314-0.735c-0.25,0-0.815,0.184-1.734,0.307
	c-0.98,0.185-2.395,0.308-4.354,0.308h-23.022c-0.734,0-3.068-0.123-4.851-0.308c-1.658-0.123-2.275-0.737-2.704-0.737
	c-0.248,0-0.492,0.799-0.615,1.167c-0.122,0.491-1.352,5.774-1.352,6.391c0,0.367,0.123,0.553,0.307,0.553
	c0.247,0,0.433-0.123,0.615-0.615c0.184-0.43,0.37-0.859,1.045-1.904c0.983-1.475,2.458-1.903,6.269-1.966l9.092-0.124v25.987
	c0,5.896,0,10.75-0.31,13.33c-0.246,1.782-0.553,3.134-1.781,3.379c-0.553,0.123-1.289,0.245-1.844,0.245
	c-0.367,0-0.491,0.186-0.491,0.369c0,0.369,0.31,0.492,0.983,0.492c1.842,0,5.713-0.188,6.021-0.188
	c0.308,0,4.175,0.188,7.547,0.188c0.676,0,0.979-0.188,0.979-0.492c0-0.186-0.121-0.369-0.485-0.369
	c-0.555,0-1.902-0.122-2.765-0.245c-1.84-0.245-2.207-1.597-2.39-3.379c-0.309-2.58-0.309-7.434-0.309-13.33L394.562,38.628
	L394.562,38.628z M318.856,38.628l7.724,0.124c5.887,0.123,7.36,1.535,7.544,3.378l0.06,0.678c0.065,0.857,0.19,1.044,0.504,1.044
	c0.25,0,0.44-0.245,0.44-0.8c0-0.676,0.188-4.915,0.188-6.758c0-0.368,0-0.735-0.315-0.735c-0.25,0-0.816,0.184-1.736,0.307
	c-0.979,0.185-2.39,0.308-4.353,0.308h-23.022c-0.734,0-3.068-0.123-4.851-0.308c-1.658-0.123-2.274-0.737-2.704-0.737
	c-0.245,0-0.491,0.799-0.613,1.167c-0.122,0.491-1.353,5.774-1.353,6.391c0,0.367,0.122,0.553,0.306,0.553
	c0.246,0,0.434-0.123,0.615-0.615c0.188-0.43,0.37-0.859,1.045-1.904c0.983-1.475,2.457-1.903,6.267-1.966l9.094-0.124v25.987
	c0,5.896,0,10.75-0.31,13.33c-0.246,1.782-0.553,3.134-1.778,3.379c-0.556,0.123-1.291,0.245-1.847,0.245
	c-0.369,0-0.487,0.186-0.487,0.369c0,0.369,0.306,0.492,0.979,0.492c1.845,0,5.713-0.188,6.021-0.188s4.175,0.188,7.548,0.188
	c0.676,0,0.979-0.188,0.979-0.492c0-0.186-0.121-0.369-0.488-0.369c-0.553,0-1.899-0.122-2.76-0.245
	c-1.84-0.245-2.208-1.597-2.392-3.379c-0.307-2.58-0.307-7.434-0.307-13.33L318.856,38.628L318.856,38.628z M287.139,53.802
	c0-9.584,0-11.304,0.123-13.27c0.122-2.15,0.614-3.194,2.272-3.501c0.736-0.124,1.104-0.185,1.534-0.185
	c0.246,0,0.492-0.123,0.492-0.368c0-0.37-0.311-0.492-0.984-0.492c-1.842,0-5.711,0.185-6.02,0.185
	c-0.308,0-4.179-0.185-6.202-0.185c-0.677,0-0.985,0.123-0.985,0.492c0,0.245,0.246,0.368,0.492,0.368
	c0.43,0,1.229,0.061,1.904,0.244c1.353,0.31,1.965,1.354,2.089,3.44c0.122,1.966,0.122,3.686,0.122,13.27v10.812
	c0,5.896,0,10.75-0.309,13.33c-0.246,1.782-0.552,3.134-1.781,3.379c-0.553,0.123-1.289,0.245-1.844,0.245
	c-0.365,0-0.487,0.186-0.487,0.369c0,0.369,0.306,0.491,0.98,0.491c1.842,0,5.713-0.187,6.021-0.187
	c0.309,0,4.178,0.187,7.557,0.187c0.676,0,0.983-0.187,0.983-0.491c0-0.186-0.124-0.369-0.492-0.369
	c-0.556,0-1.903-0.122-2.767-0.245c-1.843-0.245-2.21-1.597-2.396-3.379c-0.308-2.58-0.308-7.434-0.308-13.33L287.139,53.802
	L287.139,53.802z M255.165,83.29c3.316,0,6.632-0.737,9.275-2.58c4.238-3.011,5.221-7.679,5.221-10.195
	c0-4.915-1.721-8.726-8.969-14.438l-1.721-1.352c-5.896-4.607-7.494-6.82-7.494-10.321c0-4.484,3.316-7.126,7.556-7.126
	c5.652,0,7.312,2.58,7.68,3.255c0.367,0.676,0.736,2.334,0.801,3.072c0.061,0.489,0.121,0.798,0.488,0.798
	c0.311,0,0.434-0.43,0.434-1.414c0-4.177,0.244-6.205,0.244-6.511c0-0.31-0.123-0.433-0.615-0.433c-0.49,0-0.982-0.062-2.148-0.307
	c-1.537-0.369-3.316-0.614-5.713-0.614c-7.802,0-12.716,4.484-12.716,11.06c0,4.178,1.475,7.984,7.986,13.331l2.763,2.271
	c5.283,4.361,7.062,6.818,7.062,11.058c0,3.934-2.887,8.173-8.783,8.173c-4.115,0-8.172-1.723-9.094-6.268
	c-0.184-0.859-0.184-1.721-0.184-2.271c0-0.492-0.063-0.678-0.43-0.678c-0.311,0-0.434,0.31-0.492,0.982
	c-0.062,0.983-0.309,3.439-0.309,6.512c0,1.659,0.063,1.905,0.924,2.335C249.45,82.86,252.276,83.29,255.165,83.29z M175.23,64.615
	c0,5.897,0,10.75-0.309,13.33c-0.246,1.782-0.553,3.134-1.78,3.379c-0.555,0.123-1.29,0.245-1.845,0.245
	c-0.366,0-0.489,0.186-0.489,0.369c0,0.369,0.307,0.492,0.98,0.492c0.921,0,2.335-0.123,3.563-0.123
	c1.291-0.063,2.335-0.063,2.458-0.063c0.921,0,2.396,0.063,4.792,0.188c2.396,0.062,5.772,0.184,10.381,0.184
	c2.396,0,2.888,0,3.315-1.597c0.31-1.29,0.8-5.469,0.8-5.96c0-0.431,0-0.923-0.368-0.923c-0.31,0-0.432,0.245-0.555,0.923
	c-0.43,2.52-1.167,3.748-2.764,4.424s-4.3,0.676-5.896,0.676c-6.021,0-6.942-0.798-7.127-5.037c-0.062-1.29,0-8.417,0-10.505V59.21
	c0-0.246,0.124-0.43,0.43-0.43c1.044,0,7.126,0.123,8.785,0.307c2.396,0.246,2.948,1.29,3.193,2.15
	c0.245,0.799,0.245,1.412,0.245,2.027c0,0.307,0.123,0.553,0.433,0.553c0.429,0,0.429-0.676,0.429-1.168
	c0-0.432,0.123-2.703,0.246-3.933c0.185-2.026,0.492-3.07,0.492-3.438c0-0.369-0.123-0.492-0.31-0.492
	c-0.246,0-0.491,0.308-0.921,0.799c-0.553,0.615-1.413,0.738-2.887,0.86c-1.413,0.123-8.969,0.123-9.77,0.123
	c-0.308,0-0.367-0.187-0.367-0.614V38.998c0-0.43,0.123-0.615,0.367-0.615c0.678,0,7.372,0.062,8.416,0.187
	c3.317,0.368,3.933,1.104,4.361,2.088c0.308,0.738,0.369,1.782,0.369,2.211c0,0.492,0.123,0.798,0.492,0.798
	c0.246,0,0.367-0.368,0.429-0.676c0.123-0.737,0.247-3.44,0.308-4.054c0.187-1.722,0.491-2.457,0.491-2.889
	c0-0.307-0.061-0.553-0.246-0.553c-0.307,0-0.553,0.246-0.858,0.307c-0.492,0.123-1.477,0.246-2.644,0.309
	c-1.413,0.062-13.638,0.062-14.066,0.062l-2.521-0.123c-1.352-0.062-3.01-0.062-4.424-0.062c-0.676,0-0.982,0.123-0.982,0.492
	c0,0.245,0.246,0.368,0.491,0.368c0.554,0,1.598,0.061,2.088,0.185c2.028,0.429,2.521,1.413,2.644,3.501
	c0.123,1.966,0.123,3.686,0.123,13.27v10.813L175.23,64.615L175.23,64.615z M132.679,43.482c-0.923-2.396-1.659-4.301-1.659-5.101
	c0-0.43,0.123-0.922,0.799-1.228c0.553-0.247,1.659-0.308,2.335-0.308c0.429,0,0.614-0.123,0.614-0.432
	c0-0.308-0.555-0.43-1.658-0.43c-2.335,0-5.099,0.185-5.713,0.185c-0.737,0-4.239-0.185-7.188-0.185
	c-0.981,0-1.598,0.062-1.598,0.43c0,0.246,0.123,0.432,0.491,0.432c0.37,0,1.414,0,2.335,0.244c2.147,0.614,3.07,1.29,4.422,4.73
	l15.051,37.658c1.167,2.948,1.474,3.809,2.211,3.809c0.614,0,0.86-0.98,2.58-4.669c1.414-3.011,4.178-9.645,7.926-18.613
	c3.133-7.557,6.205-14.928,6.88-16.646c1.658-4.178,2.58-5.222,3.378-5.775c1.167-0.735,2.521-0.735,2.949-0.735
	c0.491,0,0.737-0.123,0.737-0.432c0-0.308-0.368-0.43-1.044-0.43c-1.781,0-4.423,0.185-4.792,0.185
	c-0.737,0-3.563-0.185-6.021-0.185c-0.981,0-1.352,0.123-1.352,0.492c0,0.306,0.307,0.368,0.676,0.368c0.676,0,1.597,0,2.334,0.244
	c0.615,0.31,0.799,0.923,0.799,1.413c0,0.555-0.246,1.414-0.553,2.335c-1.351,4.425-9.583,25.862-13.146,34.097L132.679,43.482z
	 M339.007,75.673c-1.106,3.071-2.335,5.406-5.162,5.774c-0.491,0.062-1.35,0.122-1.782,0.122c-0.306,0-0.553,0.124-0.553,0.369
	c0,0.369,0.369,0.492,1.168,0.492c2.89,0,6.269-0.188,6.942-0.188s3.315,0.188,4.791,0.188c0.555,0,0.921-0.123,0.921-0.492
	c0-0.245-0.184-0.369-0.612-0.369h-0.616c-1.045,0-2.334-0.552-2.334-1.78c0-1.104,0.309-2.58,0.862-4.116l3.687-10.874
	c0.124-0.307,0.308-0.49,0.611-0.49h13.209c0.309,0,0.433,0.125,0.554,0.368l5.714,15.112c0.366,0.982,0,1.535-0.368,1.658
	c-0.246,0.062-0.432,0.185-0.432,0.43c0,0.368,0.678,0.368,1.843,0.433c4.238,0.123,8.725,0.123,9.646,0.123
	c0.673,0,1.229-0.123,1.229-0.492c0-0.309-0.246-0.369-0.615-0.369c-0.612,0-1.535-0.062-2.457-0.367
	c-1.291-0.369-3.072-1.353-5.283-6.82c-3.747-9.337-13.393-34.708-14.312-37.043c-0.737-1.902-0.981-2.211-1.354-2.211
	c-0.367,0-0.613,0.369-1.35,2.396L339.007,75.673z M347.606,62.096c-0.187,0-0.31-0.123-0.187-0.432l5.406-16.586
	c0.307-0.921,0.613-0.921,0.921,0l5.835,16.586c0.062,0.246,0.062,0.432-0.243,0.432H347.606z M362.518,41.695
	c1.66,0,2.704-1.229,2.704-2.826c0-1.535-1.166-2.457-2.642-2.457c-1.904,0-2.642,1.535-2.642,2.641
	C359.94,40.221,360.677,41.695,362.518,41.695z M346.76,41.695c1.658,0,2.703-1.229,2.703-2.826c0-1.535-1.168-2.457-2.643-2.457
	c-1.904,0-2.643,1.535-2.643,2.641C344.178,40.221,344.916,41.695,346.76,41.695z M111.326,53.802c0-9.584,0-11.304,0.124-13.27
	c0.123-2.15,0.614-3.194,2.272-3.501c0.736-0.124,1.104-0.185,1.535-0.185c0.246,0,0.491-0.123,0.491-0.368
	c0-0.37-0.308-0.492-0.981-0.492c-1.845,0-5.712,0.185-6.021,0.185c-0.307,0-4.178-0.185-6.204-0.185
	c-0.676,0-0.981,0.123-0.981,0.492c0,0.245,0.246,0.368,0.489,0.368c0.432,0,1.229,0.061,1.905,0.244
	c1.354,0.31,1.965,1.354,2.088,3.44c0.123,1.966,0.123,3.686,0.123,13.27v10.812c0,5.896,0,10.75-0.306,13.33
	c-0.246,1.782-0.553,3.134-1.782,3.379c-0.553,0.123-1.29,0.245-1.843,0.245c-0.369,0-0.491,0.186-0.491,0.369
	c0,0.369,0.307,0.491,0.982,0.491c1.843,0,5.713-0.187,6.021-0.187c0.31,0,4.177,0.187,7.558,0.187c0.676,0,0.98-0.187,0.98-0.491
	c0-0.186-0.123-0.369-0.491-0.369c-0.553,0-1.902-0.122-2.764-0.245c-1.843-0.245-2.211-1.597-2.396-3.379
	c-0.307-2.58-0.307-7.434-0.307-13.33L111.326,53.802L111.326,53.802z M55.489,44.649c1.966,2.211,8.896,9.952,16.01,17.632
	C78,69.283,86.832,78.314,87.506,78.929c3.266,3.256,4.009,3.932,4.502,3.932c0.436,0,0.56-0.31,0.56-4.362L92.689,42.5
	c0-3.686,0.246-5.038,2.271-5.467c0.737-0.185,1.167-0.185,1.477-0.185c0.429,0,0.676-0.187,0.676-0.432
	c0-0.369-0.43-0.43-1.106-0.43c-2.519,0-4.555,0.185-5.234,0.185c-0.684,0-3.632-0.185-6.394-0.185c-0.734,0-1.226,0.062-1.226,0.43
	c0,0.246,0.061,0.432,0.49,0.432c0.489,0,1.899,0.061,3.005,0.308c1.899,0.491,2.33,1.843,2.392,5.835l0.678,31.208
	c-1.966-2.027-8.649-9.521-14.723-16.034C65.55,48.028,56.413,38.138,55.489,37.093c-0.62-0.612-1.672-1.966-2.167-1.966
	s-0.681,0.676-0.681,3.072l-0.062,35.2c0,5.591-0.307,7.372-1.844,7.803c-0.921,0.307-2.027,0.367-2.521,0.367
	c-0.307,0-0.489,0.124-0.489,0.369c0,0.431,0.366,0.492,0.981,0.492c2.767,0,5.356-0.188,5.913-0.188
	c0.559,0,3.019,0.188,6.513,0.188c0.736,0,1.104-0.123,1.104-0.492c0-0.245-0.184-0.369-0.49-0.369
	c-0.552,0-1.899-0.062-3.064-0.367c-1.656-0.492-2.271-2.089-2.394-7.126L55.489,44.649z M5.345,62.771
	c0,8.969,2.335,13.27,5.345,16.155c4.359,4.115,10.564,4.361,12.655,4.361c3.625,0,8.23-0.613,12.653-4.546
	c4.915-4.362,5.651-11.733,5.651-18.368v-6.573c0-9.584,0-11.304,0.123-13.27c0.123-2.15,0.615-3.132,2.271-3.501
	c0.737-0.124,1.106-0.186,1.536-0.186c0.247,0,0.492-0.122,0.492-0.367c0-0.37-0.308-0.492-0.983-0.492
	c-1.843,0-4.729,0.185-5.158,0.185c-0.369,0-3.748-0.185-6.514-0.185c-0.676,0-0.98,0.123-0.98,0.492
	c0,0.245,0.246,0.367,0.491,0.367c0.553,0,1.597,0.062,2.088,0.186c2.026,0.429,2.519,1.413,2.642,3.501
	c0.123,1.966,0.123,3.686,0.123,13.27v7.681c0,6.327-0.737,11.549-3.562,15.05c-2.213,2.642-5.897,4.424-9.646,4.424
	c-3.501,0-6.266-0.554-9.276-3.379c-2.642-2.52-4.605-6.327-4.605-15.174v-8.602c0-9.584,0-11.304,0.123-13.27
	c0.123-2.15,0.614-3.255,2.271-3.501c0.737-0.124,1.106-0.186,1.535-0.186c0.246,0,0.492-0.122,0.492-0.367
	c0-0.37-0.308-0.492-0.983-0.492c-1.843,0-5.526,0.185-6.082,0.185c-0.554,0-4.301-0.185-7.063-0.185C0.307,35.987,0,36.11,0,36.479
	c0,0.245,0.246,0.368,0.491,0.368c0.553,0,1.597,0.061,2.088,0.185c2.028,0.429,2.521,1.413,2.644,3.501
	c0.123,1.966,0.123,3.686,0.123,13.27V62.771L5.345,62.771z M224.933,61.463c6.408-1.758,10.727-7.107,10.727-14.371
	c0-3.339-1.764-6.174-3.15-7.497c-1.008-0.943-3.844-3.591-11.717-3.591c-2.896,0-8.244,0.194-9.912,0.194
	c-0.723,0-4.176-0.184-6.938-0.184c-0.675,0-0.982,0.123-0.982,0.49c0,0.246,0.246,0.368,0.491,0.368
	c0.553,0,1.596,0.062,2.087,0.187c2.027,0.429,2.52,1.412,2.643,3.499c0.123,1.965,0.123,3.684,0.123,13.263v10.807
	c0,5.896,0,10.745-0.309,13.322c-0.246,1.782-0.555,3.133-1.782,3.378c-0.553,0.123-1.289,0.246-1.842,0.246
	c-0.368,0-0.491,0.184-0.491,0.367c0,0.37,0.309,0.492,0.982,0.492c1.841,0,5.711-0.187,5.771-0.187
	c0.309,0,4.178,0.187,7.555,0.187c0.676,0,0.98-0.187,0.98-0.492c0-0.186-0.123-0.367-0.491-0.367c-0.554,0-1.901-0.123-2.763-0.246
	c-1.842-0.245-2.211-1.596-2.395-3.378c-0.311-2.577-0.311-7.428-0.311-13.322v-1.475c0-0.307,0.123-0.49,0.434-0.49l5.957,0.092
	c0.369,0,0.691,0.146,0.811,0.398c0.936,2.04,2.227,5.485,4.08,9.29c2.535,5.198,2.975,7.502,5.615,8.914
	c1.596,0.858,3.27,1.076,6.707,1.076h2.959c1.104,0,1.475-0.122,1.475-0.492c0-0.186-0.246-0.376-0.553-0.367
	c-0.607,0.016-1.625-0.155-2.789-0.361c-0.996-0.176-3.902-0.881-5.695-4.243C229.966,72.763,227.382,66.645,224.933,61.463z
	 M107.713,98.126c0-1.653-1.226-2.694-2.817-2.694c-1.532,0-2.451,1.162-2.451,2.635c0,1.897,1.532,2.634,2.635,2.634
	C106.243,100.698,107.713,99.964,107.713,98.126z M107.713,110.441c0-1.655-1.226-2.696-2.817-2.696
	c-1.532,0-2.451,1.164-2.451,2.635c0,1.899,1.532,2.637,2.635,2.637C106.243,113.015,107.713,112.279,107.713,110.441z
	 M85.811,121.268c0,8.943,2.329,13.232,5.331,16.111c4.35,4.105,10.539,4.353,12.622,4.353c3.613,0,8.21-0.612,12.622-4.534
	c4.9-4.35,5.637-11.703,5.637-18.32v-6.555c0-9.56,0-11.274,0.123-13.236c0.122-2.145,0.611-3.124,2.267-3.489
	c0.735-0.123,1.104-0.187,1.531-0.187c0.246,0,0.491-0.122,0.491-0.367c0-0.368-0.309-0.49-0.98-0.49
	c-1.838,0-4.718,0.186-5.146,0.186c-0.368,0-3.738-0.186-6.495-0.186c-0.674,0-0.98,0.122-0.98,0.49c0,0.245,0.245,0.367,0.49,0.367
	c0.552,0,1.593,0.062,2.083,0.187c2.022,0.428,2.512,1.407,2.635,3.489c0.123,1.962,0.123,3.679,0.123,13.236v7.658
	c0,6.311-0.733,11.52-3.554,15.012c-2.206,2.635-5.882,4.411-9.62,4.411c-3.492,0-6.25-0.551-9.252-3.37
	c-2.635-2.512-4.595-6.311-4.595-15.134v-8.577c0-9.56,0-11.274,0.122-13.236c0.123-2.145,0.611-3.246,2.268-3.489
	c0.735-0.123,1.104-0.187,1.531-0.187c0.245,0,0.491-0.122,0.491-0.367c0-0.368-0.309-0.49-0.98-0.49
	c-1.838,0-5.514,0.186-6.066,0.186c-0.552,0-4.29-0.186-7.047-0.186c-0.674,0-0.979,0.122-0.979,0.49
	c0,0.245,0.245,0.367,0.49,0.367c0.552,0,1.593,0.062,2.083,0.187c2.021,0.428,2.512,1.407,2.635,3.489
	c0.123,1.962,0.123,3.679,0.123,13.236v8.945H85.811z M60.018,97.193l7.706,0.122c5.872,0.123,7.339,1.532,7.521,3.37l0.062,0.675
	c0.062,0.855,0.188,1.041,0.501,1.041c0.25,0,0.438-0.245,0.438-0.797c0-0.674,0.188-4.902,0.188-6.74c0-0.366,0-0.734-0.313-0.734
	c-0.25,0-0.812,0.186-1.73,0.308c-0.979,0.184-2.387,0.307-4.344,0.307H47.089c-0.733,0-3.062-0.123-4.84-0.307
	c-1.652-0.122-2.267-0.734-2.693-0.734c-0.246,0-0.491,0.797-0.613,1.163c-0.123,0.49-1.35,5.76-1.35,6.373
	c0,0.367,0.123,0.552,0.309,0.552c0.245,0,0.429-0.123,0.612-0.612c0.184-0.429,0.367-0.856,1.042-1.897
	c0.979-1.471,2.449-1.9,6.249-1.962l9.067-0.122v25.917c0,5.884,0,10.724-0.307,13.296c-0.245,1.778-0.551,3.126-1.777,3.371
	c-0.55,0.122-1.286,0.245-1.838,0.245c-0.368,0-0.49,0.184-0.49,0.367c0,0.366,0.309,0.489,0.98,0.489
	c1.838,0,5.698-0.186,6.004-0.186s4.163,0.186,7.527,0.186c0.673,0,0.979-0.186,0.979-0.489c0-0.186-0.123-0.367-0.489-0.367
	c-0.551,0-1.896-0.123-2.753-0.245c-1.835-0.245-2.202-1.593-2.385-3.371c-0.306-2.572-0.306-7.412-0.306-13.296L60.018,97.193
	L60.018,97.193z M331.897,103.198c1.96,2.205,8.87,9.926,15.968,17.584c6.482,6.985,15.292,15.993,15.965,16.604
	c3.256,3.248,3.996,3.924,4.49,3.924c0.434,0,0.558-0.308,0.558-4.353L369,101.052c0-3.676,0.245-5.022,2.268-5.45
	c0.735-0.187,1.165-0.187,1.473-0.187c0.428,0,0.673-0.184,0.673-0.429c0-0.368-0.429-0.43-1.104-0.43
	c-2.512,0-4.543,0.185-5.223,0.185c-0.679,0-3.623-0.185-6.375-0.185c-0.732,0-1.223,0.062-1.223,0.43
	c0,0.245,0.061,0.429,0.487,0.429c0.489,0,1.896,0.062,2.996,0.309c1.896,0.488,2.323,1.838,2.388,5.818l0.677,31.126
	c-1.96-2.021-8.629-9.496-14.686-15.991c-9.42-10.108-18.531-19.976-19.453-21.017c-0.618-0.612-1.67-1.96-2.163-1.96
	c-0.492,0-0.679,0.674-0.679,3.063l-0.062,35.106c0,5.576-0.309,7.354-1.838,7.781c-0.921,0.307-2.022,0.368-2.517,0.368
	c-0.305,0-0.487,0.122-0.487,0.366c0,0.43,0.368,0.49,0.979,0.49c2.756,0,5.343-0.186,5.897-0.186c0.556,0,3.009,0.186,6.496,0.186
	c0.731,0,1.1-0.123,1.1-0.49c0-0.244-0.183-0.366-0.489-0.366c-0.551,0-1.894-0.062-3.059-0.368
	c-1.65-0.489-2.261-2.083-2.385-7.106L331.897,103.198z M296.124,123.11c0,5.884,0,10.724-0.308,13.296
	c-0.244,1.778-0.551,3.126-1.776,3.371c-0.552,0.122-1.287,0.245-1.839,0.245c-0.367,0-0.49,0.184-0.49,0.367
	c0,0.366,0.309,0.489,0.98,0.489c0.918,0,2.328-0.123,3.554-0.123c1.287-0.062,2.329-0.062,2.452-0.062
	c0.918,0,2.389,0.062,4.778,0.186c2.39,0.062,5.759,0.185,10.354,0.185c2.39,0,2.881,0,3.309-1.596
	c0.309-1.283,0.798-5.45,0.798-5.94c0-0.429,0-0.92-0.365-0.92c-0.31,0-0.433,0.245-0.556,0.92
	c-0.428,2.512-1.163,3.737-2.756,4.412c-1.594,0.674-4.289,0.674-5.882,0.674c-6.004,0-6.925-0.797-7.108-5.024
	c-0.061-1.286,0-8.396,0-10.479v-5.394c0-0.243,0.123-0.429,0.43-0.429c1.043,0,7.108,0.122,8.764,0.309
	c2.389,0.243,2.942,1.284,3.188,2.145c0.243,0.797,0.243,1.409,0.243,2.021c0,0.308,0.121,0.553,0.43,0.553
	c0.429,0,0.429-0.675,0.429-1.164c0-0.429,0.122-2.696,0.246-3.922c0.183-2.021,0.489-3.063,0.489-3.433
	c0-0.366-0.121-0.489-0.309-0.489c-0.244,0-0.488,0.308-0.918,0.797c-0.553,0.612-1.41,0.734-2.881,0.856
	c-1.408,0.123-8.945,0.123-9.742,0.123c-0.307,0-0.366-0.185-0.366-0.61V97.561c0-0.431,0.122-0.612,0.366-0.612
	c0.678,0,7.354,0.062,8.396,0.184c3.309,0.367,3.921,1.104,4.35,2.083c0.308,0.736,0.367,1.777,0.367,2.205
	c0,0.491,0.122,0.798,0.491,0.798c0.244,0,0.367-0.366,0.428-0.675c0.123-0.733,0.247-3.432,0.307-4.044
	c0.186-1.715,0.491-2.45,0.491-2.88c0-0.306-0.062-0.551-0.246-0.551c-0.305,0-0.552,0.245-0.854,0.307
	c-0.492,0.123-1.473,0.244-2.636,0.308c-1.408,0.062-13.604,0.062-14.03,0.062l-2.514-0.123c-1.35-0.062-3.001-0.062-4.411-0.062
	c-0.674,0-0.979,0.123-0.979,0.489c0,0.245,0.244,0.367,0.489,0.367c0.552,0,1.593,0.062,2.083,0.187
	c2.021,0.428,2.513,1.407,2.635,3.49c0.124,1.96,0.124,3.678,0.124,13.234v10.782H296.124z M276.944,135.668
	c0,1.041-0.43,1.715-1.227,2.146c-1.594,0.919-4.777,1.286-6.982,1.286c-5.637,0-11.213-1.84-16.052-6.558
	c-2.146-2.084-6.496-8.333-6.496-16.973c0-7.168,2.512-12.744,6.064-15.563c4.656-3.676,9.251-4.043,13.111-4.043
	c7.904,0,12.867,2.636,14.4,4.963c0.919,1.473,1.225,3.188,1.283,4.046c0.062,0.551,0.123,0.919,0.432,0.919
	c0.429,0,0.551-0.309,0.551-1.287c0-6.127,0.43-7.844,0.43-8.7c0-0.246-0.123-0.49-0.733-0.553
	c-1.532-0.062-3.679-0.308-4.965-0.611c-1.162-0.245-5.514-1.042-9.375-1.042c-4.717,0-10.781,0.43-16.296,3.86
	c-5.451,3.432-10.23,10.354-10.23,20.156c0,7.659,3.553,14.217,7.291,17.462c6.801,5.943,15.501,6.559,20.158,6.559
	c3.555,0,9.067-0.674,12.988-2.757c0.734-0.432,0.796-0.555,0.796-3.311v-6.861c0-2.573,0-4.411,0.122-6.372
	c0.123-2.146,0.613-3.188,2.27-3.492c0.733-0.122,1.104-0.187,1.531-0.187c0.243,0,0.489-0.122,0.489-0.365
	c0-0.367-0.305-0.49-0.979-0.49c-1.839,0-5.698,0.184-6.005,0.184c-0.309,0-4.166-0.184-6.923-0.184c-0.676,0-0.98,0.123-0.98,0.49
	c0,0.243,0.246,0.365,0.49,0.365c0.551,0,1.594,0.063,2.084,0.187c2.449,0.674,2.756,1.349,2.756,6.312v10.415L276.944,135.668
	L276.944,135.668z M195.759,103.198c1.963,2.205,8.873,9.926,15.97,17.584c6.482,6.985,15.293,15.993,15.965,16.604
	c3.256,3.248,3.998,3.924,4.49,3.924c0.434,0,0.557-0.308,0.557-4.353l0.123-35.905c0-3.676,0.244-5.022,2.268-5.45
	c0.734-0.187,1.164-0.187,1.473-0.187c0.428,0,0.674-0.184,0.674-0.429c0-0.368-0.43-0.43-1.104-0.43
	c-2.512,0-4.543,0.185-5.223,0.185s-3.623-0.185-6.375-0.185c-0.734,0-1.223,0.062-1.223,0.43c0,0.245,0.061,0.429,0.486,0.429
	c0.49,0,1.896,0.062,2.998,0.309c1.896,0.488,2.324,1.838,2.389,5.818l0.674,31.126c-1.959-2.021-8.627-9.496-14.686-15.991
	c-9.419-10.108-18.532-19.976-19.455-21.017c-0.616-0.612-1.668-1.96-2.16-1.96c-0.493,0-0.68,0.674-0.68,3.063l-0.062,35.106
	c0,5.576-0.309,7.354-1.839,7.781c-0.919,0.307-2.021,0.368-2.514,0.368c-0.306,0-0.488,0.122-0.488,0.366
	c0,0.43,0.365,0.49,0.979,0.49c2.757,0,5.342-0.186,5.897-0.186c0.555,0,3.009,0.186,6.496,0.186c0.732,0,1.101-0.123,1.101-0.49
	c0-0.244-0.184-0.366-0.489-0.366c-0.551,0-1.896-0.062-3.058-0.368c-1.652-0.489-2.266-2.083-2.386-7.106L195.759,103.198z
	 M177.204,112.327c0-9.559,0-11.274,0.124-13.234c0.123-2.145,0.612-3.187,2.266-3.49c0.736-0.123,1.104-0.187,1.532-0.187
	c0.245,0,0.49-0.122,0.49-0.367c0-0.366-0.307-0.489-0.981-0.489c-1.838,0-5.695,0.185-6.004,0.185
	c-0.307,0-4.167-0.185-6.188-0.185c-0.674,0-0.98,0.123-0.98,0.489c0,0.245,0.245,0.367,0.49,0.367c0.429,0,1.228,0.062,1.899,0.245
	c1.349,0.307,1.961,1.349,2.083,3.432c0.123,1.96,0.123,3.678,0.123,13.234v10.783c0,5.884,0,10.724-0.308,13.296
	c-0.245,1.778-0.551,3.126-1.775,3.371c-0.554,0.122-1.286,0.245-1.838,0.245c-0.368,0-0.49,0.184-0.49,0.367
	c0,0.366,0.306,0.489,0.979,0.489c1.838,0,5.699-0.186,6.005-0.186c0.308,0,4.166,0.186,7.536,0.186c0.674,0,0.98-0.186,0.98-0.489
	c0-0.186-0.123-0.367-0.49-0.367c-0.552,0-1.899-0.123-2.757-0.245c-1.838-0.245-2.206-1.593-2.392-3.371
	c-0.307-2.572-0.307-7.412-0.307-13.296L177.204,112.327L177.204,112.327z M136.265,123.11c0,5.884,0,10.724-0.308,13.296
	c-0.245,1.778-0.552,3.126-1.775,3.371c-0.554,0.122-1.287,0.245-1.839,0.245c-0.366,0-0.489,0.184-0.489,0.367
	c0,0.366,0.306,0.489,0.979,0.489c0.919,0,2.329-0.123,3.555-0.123c1.286-0.062,2.327-0.062,2.45-0.062
	c0.245,0,1.96,0.062,3.738,0.186c1.776,0.062,3.737,0.185,4.411,0.185c10.478,0,15.625-6.801,15.625-13.357
	c0-7.168-6.066-11.518-10.6-12.929c2.879-3.001,5.76-6.004,5.76-11.028c0-3.062-2.206-9.189-12.255-9.189
	c-2.818,0-5.208,0.185-6.68,0.185c-0.307,0-4.167-0.185-6.924-0.185c-0.674,0-0.979,0.123-0.979,0.489
	c0,0.245,0.245,0.367,0.488,0.367c0.554,0,1.595,0.062,2.083,0.187c2.022,0.428,2.514,1.407,2.637,3.49
	c0.123,1.961,0.123,3.678,0.123,13.234L136.265,123.11L136.265,123.11L136.265,123.11z M141.167,97.254
	c0-0.365,0.186-0.552,0.736-0.674c0.979-0.245,2.267-0.307,2.938-0.307c6.007,0,8.272,5.454,8.272,10.54
	c0,2.512-0.919,4.718-2.206,6.188c-1.287,1.473-2.145,1.593-5.576,1.593c-2.268,0-3.371-0.185-3.736-0.243
	c-0.309-0.123-0.431-0.246-0.431-0.676L141.167,97.254L141.167,97.254z M141.167,116.677c0-0.307,0.123-0.43,0.368-0.43
	c0.919,0,3.982,0,4.778,0.123c1.471,0.187,3.003,0.367,5.086,1.777c4.717,3.247,5.941,8.578,5.941,12.254
	c0,6.925-5.329,8.7-8.64,8.7c-1.103,0-3.737-0.122-5.392-0.918c-1.9-0.92-1.9-1.778-2.083-4.78
	c-0.062-0.919-0.062-8.516-0.062-13.235v-3.491H141.167z M112.615,14.705c0,2.941,0,5.361-0.153,6.648
	c-0.122,0.889-0.274,1.562-0.889,1.685c-0.276,0.062-0.643,0.123-0.919,0.123c-0.184,0-0.245,0.092-0.245,0.184
	c0,0.187,0.153,0.246,0.49,0.246c0.459,0,1.165-0.061,1.775-0.061c0.646-0.031,1.165-0.031,1.228-0.031
	c0.459,0,1.195,0.031,2.39,0.092c1.195,0.03,2.879,0.094,5.177,0.094c1.195,0,1.44,0,1.654-0.799
	c0.153-0.643,0.398-2.726,0.398-2.972c0-0.214,0-0.459-0.186-0.459c-0.152,0-0.215,0.123-0.274,0.459
	c-0.215,1.256-0.582,1.869-1.379,2.206c-0.796,0.337-2.146,0.337-2.941,0.337c-3.002,0-3.462-0.396-3.554-2.512
	c-0.031-0.646,0-4.198,0-5.239V12.01c0-0.121,0.062-0.214,0.214-0.214c0.521,0,3.554,0.062,4.381,0.153
	c1.195,0.123,1.471,0.643,1.593,1.072c0.123,0.396,0.123,0.705,0.123,1.011c0,0.153,0.062,0.276,0.214,0.276
	c0.214,0,0.214-0.337,0.214-0.582c0-0.217,0.062-1.35,0.123-1.96c0.094-1.013,0.245-1.532,0.245-1.718
	c0-0.184-0.061-0.244-0.151-0.244c-0.122,0-0.245,0.151-0.459,0.396c-0.275,0.307-0.704,0.368-1.439,0.429
	c-0.705,0.062-4.473,0.062-4.871,0.062c-0.152,0-0.184-0.092-0.184-0.308V1.93c0-0.216,0.062-0.309,0.184-0.309
	c0.337,0,3.676,0.031,4.197,0.092c1.654,0.186,1.96,0.553,2.175,1.042c0.153,0.368,0.186,0.891,0.186,1.104
	c0,0.246,0.061,0.396,0.244,0.396c0.122,0,0.186-0.184,0.216-0.337c0.061-0.368,0.122-1.716,0.151-2.021
	c0.092-0.858,0.245-1.227,0.245-1.44c0-0.151-0.031-0.274-0.123-0.274c-0.153,0-0.274,0.123-0.429,0.151
	c-0.246,0.062-0.735,0.123-1.317,0.153c-0.705,0.031-6.801,0.031-7.016,0.031l-1.256-0.062c-0.674-0.031-1.501-0.031-2.206-0.031
	c-0.337,0-0.49,0.062-0.49,0.246c0,0.123,0.123,0.186,0.245,0.186c0.276,0,0.796,0.03,1.042,0.092
	c1.011,0.214,1.256,0.704,1.317,1.746c0.061,0.979,0.061,1.838,0.061,6.618V14.705L112.615,14.705z M76.182,14.705
	c0,2.941,0,5.361-0.153,6.648c-0.123,0.889-0.276,1.562-0.889,1.685c-0.276,0.062-0.646,0.123-0.919,0.123
	c-0.186,0-0.245,0.092-0.245,0.184c0,0.187,0.151,0.246,0.488,0.246c0.459,0,1.165-0.061,1.777-0.061
	c0.646-0.031,1.165-0.031,1.226-0.031c0.461,0,1.195,0.031,2.392,0.092c1.195,0.03,2.88,0.094,5.177,0.094
	c1.195,0,1.44,0,1.654-0.799c0.151-0.643,0.396-2.726,0.396-2.972c0-0.214,0-0.459-0.184-0.459c-0.153,0-0.215,0.123-0.276,0.459
	c-0.215,1.256-0.582,1.869-1.378,2.206c-0.797,0.337-2.145,0.337-2.939,0.337c-3.002,0-3.462-0.396-3.556-2.512
	c-0.028-0.646,0-4.198,0-5.239V12.01c0-0.121,0.062-0.214,0.214-0.214c0.521,0,3.556,0.062,4.383,0.153
	c1.193,0.123,1.471,0.643,1.593,1.072c0.122,0.396,0.122,0.705,0.122,1.011c0,0.153,0.062,0.276,0.215,0.276
	c0.214,0,0.214-0.337,0.214-0.582c0-0.217,0.062-1.35,0.123-1.96c0.092-1.013,0.246-1.532,0.246-1.718
	c0-0.184-0.062-0.244-0.153-0.244c-0.123,0-0.245,0.151-0.459,0.396c-0.274,0.307-0.705,0.368-1.438,0.429
	c-0.705,0.062-4.475,0.062-4.871,0.062c-0.153,0-0.186-0.092-0.186-0.308V1.93c0-0.216,0.062-0.309,0.186-0.309
	c0.337,0,3.676,0.031,4.197,0.092c1.652,0.186,1.96,0.553,2.175,1.042c0.151,0.368,0.184,0.891,0.184,1.104
	c0,0.246,0.062,0.396,0.246,0.396c0.123,0,0.184-0.184,0.214-0.337c0.062-0.368,0.123-1.716,0.153-2.021
	c0.092-0.858,0.245-1.227,0.245-1.44c0-0.151-0.03-0.274-0.123-0.274c-0.153,0-0.276,0.123-0.431,0.151
	c-0.243,0.062-0.733,0.123-1.315,0.153C83.78,0.52,77.684,0.52,77.469,0.52l-1.257-0.062c-0.674-0.031-1.501-0.031-2.206-0.031
	c-0.337,0-0.488,0.062-0.488,0.246c0,0.123,0.122,0.186,0.245,0.186c0.274,0,0.797,0.03,1.042,0.092
	c1.011,0.214,1.256,0.704,1.315,1.746c0.062,0.979,0.062,1.838,0.062,6.618L76.182,14.705L76.182,14.705z M93.634,14.705
	c0,2.941,0,5.361-0.151,6.648c-0.123,0.889-0.276,1.562-0.891,1.685c-0.274,0.062-0.643,0.123-0.919,0.123
	c-0.184,0-0.243,0.092-0.243,0.184c0,0.187,0.15,0.246,0.488,0.246c0.459,0,1.165-0.061,1.777-0.061
	c0.644-0.031,1.164-0.031,1.226-0.031c0.123,0,0.98,0.031,1.869,0.092c0.891,0.03,1.869,0.094,2.206,0.094
	c5.239,0,7.813-3.4,7.813-6.681c0-3.584-3.033-5.759-5.302-6.464c1.44-1.501,2.882-3.002,2.882-5.514
	c0-1.532-1.104-4.596-6.128-4.596c-1.409,0-2.604,0.092-3.341,0.092c-0.151,0-2.083-0.092-3.462-0.092
	c-0.337,0-0.488,0.062-0.488,0.244c0,0.123,0.121,0.186,0.243,0.186c0.276,0,0.798,0.03,1.042,0.092
	c1.013,0.214,1.258,0.704,1.317,1.746c0.061,0.979,0.061,1.838,0.061,6.618V14.705L93.634,14.705z M96.085,1.777
	c0-0.186,0.092-0.276,0.368-0.337c0.49-0.123,1.134-0.153,1.47-0.153c3.002,0,4.138,2.729,4.138,5.271
	c0,1.256-0.459,2.357-1.104,3.094c-0.644,0.733-1.072,0.797-2.788,0.797c-1.134,0-1.686-0.092-1.869-0.123
	c-0.151-0.062-0.214-0.123-0.214-0.337V1.777z M96.085,11.489c0-0.153,0.062-0.215,0.186-0.215c0.459,0,1.989,0,2.389,0.062
	c0.735,0.092,1.501,0.186,2.543,0.891c2.359,1.624,2.972,4.289,2.972,6.127c0,3.462-2.666,4.35-4.318,4.35
	c-0.552,0-1.869-0.061-2.696-0.459c-0.95-0.459-0.95-0.889-1.042-2.39c-0.031-0.459-0.031-4.258-0.031-6.618L96.085,11.489
	L96.085,11.489z M166.893,9.313c0-4.779,0-5.639,0.061-6.618c0.062-1.072,0.309-1.593,1.134-1.746
	c0.368-0.062,0.554-0.092,0.768-0.092c0.123,0,0.246-0.062,0.246-0.186c0-0.184-0.153-0.246-0.49-0.246
	c-0.919,0-2.852,0.094-3.002,0.094c-0.153,0-2.083-0.094-3.462-0.094c-0.337,0-0.49,0.062-0.49,0.246
	c0,0.123,0.123,0.186,0.245,0.186c0.274,0,0.797,0.03,1.042,0.092c1.011,0.214,1.256,0.704,1.315,1.746
	c0.062,0.979,0.062,1.838,0.062,6.618v0.643c0,0.153-0.092,0.186-0.184,0.186h-12.989c-0.092,0-0.186-0.031-0.186-0.186V9.313
	c0-4.779,0-5.639,0.062-6.618c0.061-1.072,0.306-1.593,1.133-1.746c0.368-0.062,0.551-0.092,0.766-0.092
	c0.123,0,0.245-0.062,0.245-0.186c0-0.184-0.152-0.246-0.489-0.246c-0.921,0-2.851,0.094-3.003,0.094s-2.082-0.094-3.463-0.094
	c-0.337,0-0.488,0.062-0.488,0.246c0,0.123,0.122,0.186,0.245,0.186c0.274,0,0.796,0.03,1.042,0.092
	c1.011,0.214,1.256,0.704,1.315,1.746c0.062,0.979,0.062,1.838,0.062,6.618v5.392c0,2.941,0,5.361-0.153,6.648
	c-0.122,0.889-0.276,1.562-0.889,1.685c-0.275,0.062-0.645,0.123-0.919,0.123c-0.186,0-0.245,0.092-0.245,0.184
	c0,0.187,0.151,0.246,0.488,0.246c0.919,0,2.851-0.092,3.002-0.092c0.153,0,2.083,0.092,3.77,0.092c0.337,0,0.49-0.092,0.49-0.246
	c0-0.091-0.062-0.184-0.245-0.184c-0.276,0-0.949-0.061-1.378-0.123c-0.919-0.122-1.104-0.796-1.195-1.685
	c-0.153-1.287-0.153-3.707-0.153-6.648v-3.216c0-0.153,0.094-0.184,0.186-0.184h12.989c0.092,0,0.184,0.062,0.184,0.184v3.216
	c0,2.941,0,5.361-0.153,6.648c-0.123,0.889-0.273,1.562-0.888,1.685c-0.276,0.062-0.645,0.123-0.919,0.123
	c-0.186,0-0.245,0.092-0.245,0.184c0,0.187,0.153,0.246,0.49,0.246c0.919,0,2.849-0.092,3.002-0.092
	c0.152,0,2.083,0.092,3.769,0.092c0.336,0,0.49-0.092,0.49-0.246c0-0.091-0.061-0.184-0.245-0.184c-0.274,0-0.95-0.061-1.378-0.123
	c-0.919-0.122-1.103-0.796-1.195-1.685c-0.151-1.287-0.151-3.707-0.151-6.648V9.313H166.893z M205.009,13.127
	c3.199-0.877,5.353-3.547,5.353-7.17c0-1.667-0.879-3.081-1.57-3.741c-0.504-0.471-1.917-1.792-5.847-1.792
	c-1.445,0-4.113,0.099-4.945,0.099c-0.359,0-2.084-0.092-3.462-0.092c-0.337,0-0.49,0.062-0.49,0.244
	c0,0.123,0.123,0.186,0.245,0.186c0.276,0,0.797,0.03,1.042,0.092c1.012,0.214,1.256,0.704,1.317,1.746
	c0.062,0.979,0.062,1.838,0.062,6.618v5.392c0,2.941,0,5.361-0.151,6.648c-0.123,0.889-0.276,1.562-0.891,1.685
	c-0.274,0.062-0.644,0.123-0.919,0.123c-0.184,0-0.245,0.092-0.245,0.186c0,0.185,0.153,0.244,0.49,0.244
	c0.919,0,2.85-0.092,2.88-0.092c0.153,0,2.083,0.092,3.771,0.092c0.337,0,0.489-0.092,0.489-0.244c0-0.093-0.062-0.186-0.244-0.186
	c-0.275,0-0.95-0.061-1.378-0.123c-0.921-0.122-1.104-0.796-1.195-1.685c-0.153-1.287-0.153-3.707-0.153-6.648v-0.736
	c0-0.152,0.062-0.244,0.214-0.244l2.975,0.046c0.184,0,0.346,0.07,0.402,0.198c0.467,1.019,1.109,2.736,2.036,4.636
	c1.267,2.594,1.484,3.744,2.803,4.447c0.796,0.43,1.632,0.536,3.349,0.536h1.477c0.552,0,0.734-0.061,0.734-0.246
	c0-0.091-0.123-0.188-0.275-0.184c-0.303,0.008-0.811-0.077-1.393-0.18c-0.496-0.088-1.945-0.44-2.842-2.118
	C207.521,18.765,206.232,15.712,205.009,13.127z M201.459,1.409c0.945-0.011,3.024-0.168,4.69,1.529
	c1.667,1.696,1.76,3.804,1.76,4.841c0,2.892-2.375,5.057-5.423,5.057c-1.259,0-2.65-0.214-3.11-0.488
	c-0.151-0.094-0.214-0.216-0.214-0.368V1.961c0-0.184,0.092-0.307,0.246-0.368C199.713,1.501,200.54,1.419,201.459,1.409z
	 M219.216,8.823c0-2.359,0-5.484,0.031-6.525c0-0.337,0.092-0.488,0.367-0.611c0.246-0.123,1.379-0.214,1.992-0.214
	c3.645,0,7.137,0.429,10.018,3.461c1.256,1.315,2.941,3.83,2.941,7.721c0,2.818-0.859,5.759-2.451,7.322
	c-1.809,1.808-4.443,2.849-7.291,2.849c-3.615,0-4.811-0.643-5.209-1.225c-0.244-0.337-0.307-1.563-0.336-2.329
	c-0.031-0.582-0.063-3.4-0.063-6.648L219.216,8.823L219.216,8.823z M216.644,14.705c0,2.941,0,5.361-0.154,6.648
	c-0.121,0.889-0.275,1.562-0.889,1.685c-0.275,0.062-0.645,0.123-0.918,0.123c-0.186,0-0.246,0.092-0.246,0.184
	c0,0.187,0.152,0.246,0.488,0.246c0.459,0,1.164-0.061,1.777-0.061c0.645-0.031,1.164-0.031,1.227-0.031
	c0.152,0,1.193,0.092,2.543,0.186c1.316,0.092,2.939,0.184,4.26,0.184c5.207,0,7.965-2.145,9.281-3.523
	c1.715-1.808,3.309-4.777,3.309-8.639c0-3.646-1.439-6.188-2.971-7.782c-3.646-3.768-9.252-3.491-12.285-3.491
	c-1.838,0-3.77,0.092-4.137,0.092c-0.152,0-2.084-0.092-3.463-0.092c-0.338,0-0.488,0.062-0.488,0.244
	c0,0.123,0.123,0.186,0.244,0.186c0.275,0,0.797,0.03,1.043,0.092c1.01,0.214,1.256,0.704,1.314,1.746
	c0.063,0.979,0.063,1.838,0.063,6.618L216.644,14.705L216.644,14.705z M137.104,13.127c3.196-0.877,5.352-3.547,5.352-7.17
	c0-1.667-0.88-3.081-1.571-3.741c-0.503-0.471-1.917-1.792-5.847-1.792c-1.446,0-4.114,0.099-4.945,0.099
	c-0.359,0-2.083-0.092-3.462-0.092c-0.337,0-0.488,0.062-0.488,0.244c0,0.123,0.123,0.186,0.245,0.186
	c0.273,0,0.796,0.03,1.042,0.092c1.011,0.214,1.256,0.704,1.315,1.746c0.062,0.979,0.062,1.838,0.062,6.618v5.392
	c0,2.941,0,5.361-0.153,6.648c-0.123,0.889-0.276,1.562-0.889,1.685c-0.276,0.062-0.645,0.123-0.919,0.123
	c-0.186,0-0.245,0.092-0.245,0.186c0,0.185,0.151,0.244,0.488,0.244c0.919,0,2.851-0.092,2.882-0.092
	c0.151,0,2.083,0.092,3.768,0.092c0.337,0,0.49-0.092,0.49-0.244c0-0.093-0.062-0.186-0.245-0.186c-0.276,0-0.95-0.061-1.379-0.123
	c-0.919-0.122-1.104-0.796-1.195-1.685c-0.153-1.287-0.153-3.707-0.153-6.648v-0.736c0-0.152,0.062-0.244,0.216-0.244l2.973,0.046
	c0.184,0,0.346,0.07,0.404,0.198c0.465,1.019,1.107,2.736,2.034,4.636c1.268,2.594,1.484,3.744,2.804,4.447
	c0.796,0.43,1.631,0.536,3.347,0.536h1.479c0.551,0,0.733-0.061,0.733-0.246c0-0.091-0.123-0.188-0.274-0.184
	c-0.305,0.008-0.812-0.077-1.394-0.18c-0.497-0.088-1.947-0.44-2.842-2.118C139.616,18.765,138.327,15.712,137.104,13.127z
	 M133.554,1.409c0.944-0.011,3.023-0.168,4.688,1.529c1.667,1.696,1.76,3.804,1.76,4.841c0,2.892-2.375,5.057-5.424,5.057
	c-1.259,0-2.648-0.214-3.107-0.488c-0.153-0.094-0.216-0.216-0.216-0.368V1.961c0-0.184,0.094-0.307,0.245-0.368
	C131.809,1.501,132.635,1.419,133.554,1.409z M178.476,13.449c-0.094,0-0.153-0.062-0.094-0.215l2.696-8.271
	c0.153-0.459,0.308-0.459,0.459,0l2.91,8.271c0.031,0.123,0.031,0.215-0.123,0.215H178.476z M174.187,20.219
	c-0.554,1.532-1.164,2.696-2.574,2.882c-0.245,0.029-0.674,0.061-0.889,0.061c-0.153,0-0.275,0.062-0.275,0.184
	c0,0.187,0.184,0.246,0.582,0.246c1.44,0,3.125-0.092,3.462-0.092s1.654,0.092,2.39,0.092c0.276,0,0.459-0.061,0.459-0.246
	c0-0.121-0.092-0.184-0.306-0.184h-0.307c-0.521,0-1.164-0.276-1.164-0.888c0-0.552,0.151-1.287,0.429-2.055l1.838-5.422
	c0.062-0.151,0.153-0.246,0.308-0.246h6.586c0.152,0,0.215,0.062,0.274,0.186l2.852,7.537c0.184,0.49,0,0.766-0.186,0.827
	c-0.122,0.029-0.214,0.092-0.214,0.214c0,0.184,0.337,0.184,0.919,0.215c2.114,0.061,4.352,0.061,4.812,0.061
	c0.337,0,0.611-0.061,0.611-0.246c0-0.151-0.122-0.184-0.306-0.184c-0.307,0-0.767-0.03-1.226-0.184
	c-0.645-0.186-1.532-0.676-2.637-3.401c-1.869-4.656-6.678-17.309-7.138-18.473C182.122,0.153,181.999,0,181.815,0
	c-0.186,0-0.308,0.186-0.674,1.195L174.187,20.219z M272.764,13.449c-0.094,0-0.152-0.062-0.094-0.215l2.697-8.271
	c0.152-0.46,0.307-0.46,0.459,0l2.91,8.271c0.031,0.123,0.031,0.215-0.123,0.215H272.764z M271.172,23.59
	c0.275,0,0.459-0.062,0.459-0.246c0-0.121-0.092-0.184-0.307-0.184h-0.307c-0.521,0-1.164-0.276-1.164-0.888
	c0-0.554,0.152-1.287,0.43-2.055l1.838-5.422c0.063-0.151,0.152-0.246,0.309-0.246h6.585c0.152,0,0.215,0.062,0.274,0.186
	l2.851,7.537c0.185,0.49,0,0.766-0.186,0.827c-0.121,0.029-0.215,0.092-0.215,0.214c0,0.184,0.338,0.184,0.921,0.214
	c2.112,0.062,4.35,0.062,4.809,0.062c0.34,0,0.612-0.062,0.612-0.246c0-0.151-0.123-0.184-0.304-0.184
	c-0.311,0-0.77-0.03-1.229-0.184c-0.644-0.186-1.531-0.676-2.635-3.401c-1.869-4.656-6.678-17.309-7.138-18.474
	C276.411,0.153,276.288,0,276.104,0c-0.186,0-0.309,0.186-0.674,1.195l-6.953,19.023c-0.459,1.271-0.959,2.289-1.92,2.704
	c-0.801-0.269-1.596-0.876-2.605-2.011c-2.303-2.587-7.088-8.694-8.224-10.25c0.645-0.767,6.009-6.006,6.773-6.741
	c1.379-1.315,2.055-2.083,3.312-2.635c0.609-0.273,1.256-0.429,1.715-0.429c0.244,0,0.307-0.062,0.307-0.214
	c0-0.153-0.123-0.216-0.461-0.216c-0.766,0-2.787,0.093-2.938,0.093c-0.736,0-1.688-0.093-2.3-0.093
	c-0.214,0-0.366,0.062-0.366,0.216c0,0.122,0.121,0.184,0.273,0.245c0.246,0.092,0.398,0.274,0.398,0.644
	c0,0.521-0.797,1.317-1.654,2.206c-1.104,1.195-6.646,6.832-7.167,7.414l-0.123-1.838c0-4.779,0-5.639,0.062-6.618
	c0.062-1.072,0.307-1.593,1.133-1.746c0.369-0.062,0.553-0.092,0.768-0.092c0.123,0,0.244-0.062,0.244-0.186
	c0-0.184-0.15-0.245-0.49-0.245c-0.918,0-2.693,0.093-2.971,0.093c-0.184,0-1.992-0.093-3.371-0.093c-0.336,0-0.49,0.062-0.49,0.245
	c0,0.123,0.123,0.186,0.246,0.186c0.275,0,0.797,0.03,1.041,0.092c1.014,0.214,1.256,0.705,1.318,1.746
	c0.061,0.979,0.061,1.838,0.061,6.618v5.392c0,2.941,0,5.361-0.15,6.648c-0.123,0.889-0.275,1.562-0.893,1.685
	c-0.273,0.062-0.643,0.123-0.918,0.123c-0.184,0-0.243,0.092-0.243,0.186c0,0.184,0.151,0.244,0.489,0.244
	c0.918,0,2.695-0.092,2.941-0.092c0.244,0,2.021,0.092,3.521,0.092c0.338,0,0.49-0.092,0.49-0.244c0-0.093-0.061-0.186-0.244-0.186
	c-0.273,0-0.768-0.061-1.193-0.123c-0.918-0.123-1.104-0.796-1.195-1.685c-0.152-1.287-0.152-3.707-0.152-6.648l0.018-2.979
	c0.688,0.955,3.521,4.733,5.396,7.105c1.629,2.063,2.85,3.524,4.156,4.243c0.557,0.306,0.844,0.521,2.266,0.521
	c0,0,2.016-0.104,3.086-0.104C269.438,23.493,270.436,23.59,271.172,23.59z M330.257,24.019c1.654,0,3.311-0.367,4.626-1.287
	c2.113-1.501,2.604-3.829,2.604-5.085c0-2.451-0.857-4.352-4.475-7.199l-0.854-0.674c-2.941-2.297-3.739-3.401-3.739-5.147
	c0-2.234,1.654-3.553,3.771-3.553c2.817,0,3.645,1.286,3.826,1.623c0.186,0.337,0.367,1.164,0.399,1.532
	c0.03,0.245,0.062,0.396,0.246,0.396c0.149,0,0.213-0.214,0.213-0.705c0-2.083,0.122-3.094,0.122-3.247
	c0-0.151-0.061-0.215-0.306-0.215s-0.491-0.029-1.073-0.151C334.851,0.123,333.963,0,332.766,0c-3.89,0-6.342,2.236-6.342,5.517
	c0,2.083,0.736,3.98,3.985,6.646l1.379,1.134c2.632,2.177,3.521,3.4,3.521,5.516c0,1.96-1.438,4.072-4.382,4.072
	c-2.052,0-4.071-0.855-4.532-3.125c-0.093-0.429-0.093-0.855-0.093-1.133c0-0.246-0.029-0.337-0.214-0.337
	c-0.153,0-0.216,0.154-0.246,0.49c-0.027,0.49-0.151,1.715-0.151,3.248c0,0.827,0.03,0.95,0.459,1.164
	C327.407,23.804,328.816,24.019,330.257,24.019z M314.661,9.313c0-4.779,0-5.639,0.062-6.618c0.062-1.072,0.307-1.593,1.192-1.746
	c0.37-0.062,0.797-0.092,1.012-0.092c0.123,0,0.244-0.062,0.244-0.186c0-0.184-0.152-0.246-0.488-0.246
	c-0.92,0-3.153,0.094-3.31,0.094c-0.153,0-2.084-0.094-3.462-0.094c-0.338,0-0.49,0.062-0.49,0.246c0,0.123,0.121,0.186,0.244,0.186
	c0.278,0,0.797,0.03,1.043,0.092c1.011,0.214,1.257,0.704,1.316,1.746c0.062,0.979,0.062,1.838,0.062,6.618v5.392
	c0,2.941,0,5.361-0.154,6.648c-0.121,0.889-0.273,1.562-0.889,1.685c-0.275,0.062-0.642,0.123-0.917,0.123
	c-0.184,0-0.246,0.092-0.246,0.184c0,0.187,0.154,0.246,0.489,0.246c0.459,0,1.136-0.029,1.746-0.061
	c0.613,0,1.136-0.031,1.257-0.031c0.888,0,1.839,0.031,3.125,0.092c1.287,0.03,2.88,0.094,5.085,0.094
	c1.623,0,1.717-0.123,1.93-0.827c0.246-0.891,0.46-2.729,0.46-3.064s-0.027-0.459-0.184-0.459c-0.186,0-0.245,0.153-0.276,0.398
	c-0.092,0.582-0.396,1.348-0.797,1.838c-0.732,0.889-2.082,0.919-3.707,0.919c-2.389,0-3.186-0.214-3.676-0.705
	c-0.551-0.552-0.673-2.512-0.673-7.016V9.313H314.661z M299.541,13.127c3.197-0.877,5.352-3.547,5.352-7.17
	c0-1.667-0.881-3.081-1.57-3.741c-0.501-0.471-1.917-1.792-5.846-1.792c-1.446,0-4.113,0.099-4.945,0.099
	c-0.361,0-2.084-0.092-3.463-0.092c-0.336,0-0.49,0.062-0.49,0.244c0,0.123,0.123,0.186,0.247,0.186c0.275,0,0.797,0.03,1.04,0.092
	c1.012,0.214,1.257,0.704,1.319,1.746c0.06,0.979,0.06,1.838,0.06,6.618v5.392c0,2.941,0,5.361-0.151,6.648
	c-0.124,0.889-0.276,1.562-0.89,1.685c-0.277,0.062-0.644,0.123-0.919,0.123c-0.184,0-0.246,0.092-0.246,0.186
	c0,0.185,0.154,0.244,0.492,0.244c0.917,0,2.847-0.092,2.879-0.092c0.151,0,2.081,0.092,3.767,0.092c0.34,0,0.491-0.092,0.491-0.244
	c0-0.093-0.062-0.186-0.245-0.186c-0.275,0-0.95-0.061-1.379-0.123c-0.92-0.122-1.104-0.796-1.193-1.685
	c-0.151-1.287-0.151-3.707-0.151-6.648v-0.736c0-0.152,0.06-0.244,0.213-0.244l2.975,0.046c0.186,0,0.348,0.07,0.404,0.198
	c0.464,1.019,1.106,2.736,2.034,4.636c1.266,2.594,1.482,3.744,2.801,4.447c0.797,0.43,1.632,0.536,3.349,0.536h1.478
	c0.551,0,0.735-0.061,0.735-0.246c0-0.091-0.124-0.188-0.276-0.184c-0.304,0.008-0.812-0.077-1.393-0.18
	c-0.498-0.088-1.945-0.44-2.842-2.118C302.051,18.765,300.762,15.712,299.541,13.127z M295.99,1.409
	c0.946-0.011,3.021-0.168,4.688,1.529c1.669,1.696,1.763,3.804,1.763,4.841c0,2.892-2.374,5.057-5.423,5.057
	c-1.262,0-2.65-0.214-3.11-0.488c-0.153-0.094-0.213-0.216-0.213-0.368V1.961c0-0.184,0.092-0.307,0.243-0.368
	C294.245,1.501,295.07,1.419,295.99,1.409z"/>
<path fill="#FFFFFF" d="M550.777,45.675c1.644-3.022,1.978-4.924,1.978-8.604c0-3.598-0.916-5.789-2.99-8.729
	c0.621-0.972,1.15-1.585,1.121-2.734c-0.104-4.182-1.812-6.489-4.194-8.979c-1.8-1.877-3.396-2.485-5.938-3.021
	c-3.109-4.459-6.882-6.521-12.318-6.521c-5.812,0-11.5,3.092-13.886,8.605c-2.564-5.603-6.89-8.605-12.131-8.605
	c-5.517,0-13.065,4.188-14.483,11.184c-3.489,3.396-6.043,8.729-6.043,12.917c0,5.008,0.526,9.934,2.918,14.208
	c-0.961,2.795-1.136,4.61-0.729,7.542c0.437,3.169,1.425,6.341,3.125,7.583c0.671,0.487,4.825,0.092,6.392-1.15
	c0.233,1.233,0.502,1.932,1.152,3.004c1.031,1.698,1.979,2.562,3.764,3.43c-0.004-0.476,0.004-0.932,0.037-1.367
	c0,0,1.347,3.962,6.379,3.896c-0.829-1.711-0.479-3.004,0.588-4.073c1.184-1.181,5.197-1.961,5.197,0.569V86.98
	c0,3.83-0.16,4.375-1.057,6.033c-1.31,2.419-4.145,3.13-11.14,5.104c-5.155,1.457-10.394,4.613-11.728,8.355
	c0,0,2.337-1.854,4.521-2.373c1.854-0.443,3.562-0.418,5.375-0.209c-0.922,0.957-1.438,1.49-2.709,2.104
	c-2.062,1-3.601,0.328-5.688,2.953c2.191-0.852,3.707-0.266,3.707-0.266c-1.333,1.994-3.203,1.768-4.956,2.807
	c-1.911,1.135-2.604,3.024-2.499,5.047c2.186-2.771,3.809-2.244,6.457-3.396c2.29-0.998,3.938-2.104,5.104-4.854
	c0.23,5.021-3.286,5.871-5.146,7.623c-3.008,2.84-4.603,4.523-4.272,9.711c1.134-6.752,7.4-6.459,11.466-9.312
	c2.558-1.802,3.142-3.791,3.536-7.191c3.4,9.062-4.726,8.691-9.312,13.648c-2.674,2.889-2.98,8.768,1.25,9.877
	c-1.165-1.656-1.402-3.201-0.789-5.133c0.758-2.385,2.491-3.787,4.979-4.041c-1.755,1.193-2.577,2.509-2.896,4.605
	c-0.373,2.445,0.266,4.299,2.065,5.996c-0.455-2.625-0.382-4.436,0.957-6.767c1.646-2.875,5.221-3.849,8.576-6.171
	c1.564-1.082,2.876-3.244,3.759-6.247c0.002,2.554-0.29,4.15-1.585,6.353c-1.669,2.836-5.731,3.623-7.424,6.375
	c-1.417,2.307-1.562,4.112-1.354,6.812c0.545-2.019,1.765-4.377,4.168-5.479c4.396-2.019,6.979-3.854,8.396-7.832
	c0.271,2.213,0.413,3.579-0.48,5.562c-1.396,3.096-5.188,3.106-7.162,4.938c-0.96,0.889-1.188,1.682-1.729,2.875
	c1.157-0.467,1.979-0.717,3.127-0.705c1.827,0.021,2.812,0.855,4.716,0.855c3.376,0,5.279-3.152,4.926-7.982
	c1.688,4.313,5.334,7.982,9.248,7.982c1.963,0,4.398-0.299,6.088-1.465c-2.021,0.253-4.122-0.658-6.312-2.038
	c-4.646-2.927-5.669-7.979-6.215-12.627c1.5,4.271,3.438,6.872,6.938,9.474c4.915,3.648,12.377,5.13,16.937,2.357
	c-1.771,0.188-2.81,0.146-4.56-0.168c-2.666-0.479-4.67-1.123-6.416-2.666c3.938,1.479,6.912,1.185,10.75-0.518
	c2.872-1.271,4.182-3.104,4.896-6.604c-2.386,2.468-5.479,3.448-7.832,4c-4.899,1.146-11.063-1.773-13.772-6.854
	c0.729,0.047,1.139,0.104,1.854,0.246c2.688,0.549,2.983,2.549,6.312,3.125c0,0-0.356,0.648-1.021,1.004
	c2.243,0.479,3.688,0.736,5.882-0.01c3.271-1.115,5.28-2.225,7.368-4.22c-1.483,0.572-2.409,0.763-4,0.81
	c-1.885,0.055-3.005-0.142-4.755-0.83c1.714-1.878,3.158-2.688,5.584-3.354c1.562-0.436,4.48-0.705,6.456,0.229
	c-0.81-2.038-3.419-3.331-5.269-3.353c-5.92-0.065-6.381,3.177-10.104,2.935c-2.795-0.182-5.375-2.582-9.562-1.557
	c0.102-0.838,0.045-1.354-0.229-2.15c-0.375-1.084-0.894-1.829-1.767-2.353c2.604,0.396,3.629,2.687,6.849,3.253
	c7.339,1.29,8.899-1.193,12.755-2.508c1.266-0.432,2.691-0.381,4.044,0.188c0,0-0.916-2.354-2.312-3.269
	c-0.66,0.734-1.166,1.084-2.088,1.438c-1.229,0.474-2.353,0.412-3.371,0.168c0.041-0.813,0.188-2.171,0.771-2.938
	c0.696-0.93,1.718-1.7,3.127-1.856c-1.135-0.219-1.981-0.375-2.959-0.104c-1.604,0.442-3.373,3.188-6.479,3.747
	c-3.039,0.547-5.271-0.494-7.504-2.521c1.732,0.625,2.857,0.761,4.688,0.565c3.229-0.349,5.25-1.88,7.256-4.084
	c-4.547,0.601-9.982-2.312-12.418-7.065c-0.609-1.186-0.795-2.309-0.795-3.996V66.662c0-2.25,1.368-4.687,3.743-4.354
	c0,0-0.306,3.49,0.75,5.292c1.312,2.229,3.062,3.507,5.668,3.458c0.054,0.663-0.125,1.793-0.655,2.611
	c2.905,0.056,8.821-3.694,13.338-11.375c3.627-6.521,1.404-11.68,1.688-12.729c0.325-1.2,1.628-1.12,2.812-1.511
	c0.03-0.563-0.002-0.896-0.146-1.44C551.036,46.237,550.956,46.025,550.777,45.675z M504.065,117.827
	c2.895-2.828,3.729-6.223,2.485-10.074c-0.766-2.367-1.768-3.705-3.818-5.104c0.59-0.648,0.943-0.996,1.605-1.57
	c0.562-0.484,0.888-0.744,1.49-1.17l0.723,1.943c0.929,2.48,2.336,4.016,2.402,6.357
	C509.076,112.409,506.463,115.94,504.065,117.827z M517.038,43.08c0,2.029,0.041,3.795,0.086,5.513l-2.119-0.781
	c-0.256-0.71-0.521-1.359-0.803-1.951c0.092-0.56,0.198-0.979,0.396-1.606c0.295-0.937,0.521-1.455,0.994-2.312l1.426-0.08
	C517.031,42.256,517.038,42.664,517.038,43.08z M496.218,45.841c0.021,0.913,0.081,1.472,0.271,2.306
	c-0.162,0.205-0.318,0.416-0.471,0.633l-1.504-1.859l-1.49-0.641c0.218-0.551,0.719-1.547,1.053-1.926
	c-0.615-0.271-1.377-1.874-1.662-2.702c0.797,0.129,1.267,0.144,2.07,0.062c0.539-0.053,0.844-0.106,1.361-0.256l-1.43-5.045
	c1.287,0.385,2,0.71,3.135,1.43c0.944,0.603,1.787,0.774,2.231,1.805c0.116,0.27,0.177,0.462,0.214,0.708
	c-1.648,0.757-2.979,1.977-3.672,3.637C496.223,44.705,496.204,45.117,496.218,45.841z M488.889,47.27
	c-0.438,0.285-0.721,0.479-1.079,0.744c0.101-1.186,0.329-2.021,0.868-3.229c0-1.302,0.314-2.704,0.807-4.043l2.045,3.481
	l-0.867,1.982C489.957,46.596,489.567,46.83,488.889,47.27z M491.174,53.616c-0.312,0.226-0.503,0.337-0.853,0.5
	c-0.445,0.207-0.819,0.34-1.204,0.415c-0.832-1.408-1.284-3.036-1.351-4.864c0.835,0.491,1.353,0.941,2.039,1.75
	C490.464,52.185,490.777,52.688,491.174,53.616z M495.932,21.608c0.188,0.591,0.323,1.095,0.434,1.599l1.989,1.928l0.62,0.95
	c-1.545,0.544-2.967,1.341-4.239,2.312c-0.37-0.562-0.987-1.479-1.063-1.814c-0.073-0.334-0.542-1.167-0.978-1.562l-0.021-0.013
	C493.719,23.687,494.797,22.554,495.932,21.608z M492.961,18.863c1.864-1.097,3.698-1.784,5.09-1.827
	c-1.729,1.466-3.113,2.919-4.306,4.401c-0.03-0.355-0.076-0.66-0.16-1.09C493.529,20.066,493.219,19.418,492.961,18.863z
	 M501.082,34.533c0.076-0.468,0.26-2.041,0.441-2.971c1.596-0.08,3.219,0.107,4.771,0.603c-0.301-0.396-0.682-0.798-1.122-1.159
	l0.022-1.55c0.128-0.529,0.188-0.83,0.289-1.365c0.084-0.455,0.132-0.752,0.185-1.146l0.2,0.031
	c0.479,0.072,0.949,0.168,1.396,0.272c0.315,0.718,0.887,1.959,1.205,2.334c0.266,0.31,0.418,0.477,0.705,0.756
	c0,0-0.66,1.185-0.771,1.717c-0.229,1.092-0.109,2.115,0.319,2.928l-2.102-1.496c-0.183,0.595-0.372,1.188-0.31,1.496
	c0.245,1.202,0.363,1.911,0.271,3.134c-0.045,0.589-0.102,0.979-0.222,1.469c-2.065-0.333-4.18-0.129-5.968,0.589
	c-0.1-0.646-0.093-1.132,0.004-1.862c0.105-0.854,0.484-1.271,0.605-2.121C501.109,35.548,500.983,35.17,501.082,34.533z
	 M501.281,26.917c0.603-0.085,1.221-0.133,1.849-0.142l1.09,1.091c0.18,0.698,0.18,1.148,0,1.846
	c-0.053,0.208-0.104,0.376-0.169,0.534c-0.48-0.261-1.004-0.462-1.539-0.57c-0.393-0.076-0.771-0.14-1.146-0.183
	c0.092-0.424,0.11-0.808,0.094-1.339C501.437,27.659,501.388,27.307,501.281,26.917z M503.916,25.284
	c-0.969-0.018-1.906,0.063-2.811,0.231l1.479-2.551l0.77-0.979c0.707,0.562,1.076,0.934,1.645,1.641
	c0.534,0.67,0.839,1.138,1.171,1.817C505.449,25.352,504.7,25.299,503.916,25.284z M500.26,29.418
	c-2.596-0.059-4.688,0.757-6.529,1.808c1.424-2.083,3.713-3.479,6.383-4.093c0.146,0.37,0.207,0.688,0.23,1.15
	C500.375,28.733,500.355,29.052,500.26,29.418z M499.927,31.732c-0.215,1.384-0.348,2.286-0.561,3.78l-0.257,1.847l-0.948-0.096
	c-0.547-0.353-0.848-0.562-1.365-0.949c-1.081-0.815-1.716-1.374-2.558-2.271C495.885,32.867,497.857,32.073,499.927,31.732z
	 M492.989,27.898c0.271,0.52,0.481,0.815,0.864,1.215c-2.271,1.967-4.015,4.479-5.104,7.016c0.037-4.105,0.863-6.876,3.073-9.986
	l0.618,0.197C492.564,26.972,492.689,27.328,492.989,27.898z M490.983,40.315c-0.497-0.03-0.842-0.104-1.227-0.276
	c0.827-1.987,1.998-3.768,3.028-4.781c0.146,0.785,0.269,1.362,0.508,2.266c0.287,1.076,0.493,1.675,0.931,2.695
	c-0.656-0.127-1.047-0.152-1.719-0.128C491.907,40.116,491.582,40.352,490.983,40.315z M497.582,42.99
	c0.323-0.233,0.65-0.451,0.984-0.651c0.222,0.313,0.354,0.546,0.544,0.935c0.404,0.838,0.594,1.438,0.671,2.254
	c-0.815,0.357-1.545,0.852-2.193,1.438c-0.204-0.456-0.295-0.814-0.361-1.381C497.1,44.557,497.196,43.827,497.582,42.99z
	 M499.036,42.072c1.646-0.884,3.455-1.314,5.61-1l0.176,0.027c-0.453,0.771-0.834,1.301-1.487,2.071
	c-0.485,0.576-0.781,0.889-1.333,1.397c-0.585-0.531-0.921-0.825-1.525-1.333C499.912,42.764,499.546,42.467,499.036,42.072z
	 M506.096,41.384c1.582,0.455,3.043,1.268,4.311,2.402c-0.166,0.741-0.318,1.513-0.404,2.183c-0.136,1.053-0.195,1.772-0.203,2.65
	c-1.438-1.74-3.088-3.036-5.012-3.542L506.096,41.384z M509.742,40.687c-0.549-0.298-1.111-0.526-1.688-0.707
	c-0.189-0.659-0.293-1.153-0.396-1.932c-0.107-0.78-0.14-1.23-0.129-2.021c0.453,0.226,0.696,0.376,1.105,0.674
	c0.312,0.226,0.479,0.365,0.756,0.627c0.639-0.271,1.062-0.344,1.75-0.289c0.537,0.043,0.854,0.129,1.334,0.368
	c-0.771,0.597-1.171,0.996-1.768,1.767C510.273,39.736,510.031,40.11,509.742,40.687z M511.817,31.834
	c-0.316-0.416-0.604-0.608-1.107-0.756c-0.062-0.58-0.062-0.915,0-1.494c0.04-0.378,0.084-0.649,0.159-0.943
	c2.021,1.156,3.538,2.854,4.561,5.146c-0.117,0.331-0.303,0.638-0.576,0.973c-0.188,0.237-0.316,0.36-0.562,0.546l-2.072-1.812
	C512.334,32.834,512.219,32.362,511.817,31.834z M512.668,39.014c0.715-0.604,1.134-0.928,1.896-1.466
	c-0.141,1.383-0.247,2.156-0.498,3.521c-0.236,1.271-0.408,2.049-0.72,3.197c-0.893-1.456-1.868-2.457-2.911-3.16
	C511.223,40.275,511.748,39.789,512.668,39.014z M515.839,24.853c0.905,2.304,1.054,4.843,0.522,6.988
	c-2.399-3.366-5.141-5.327-8.69-6.134l1.446-5.3c1.203,0.939,1.811,1.607,2.635,2.892c0.551,0.858,1.468,2.816,2.152,4.533
	c0.117-0.373,0.278-0.742,0.514-1.175C514.845,25.859,515.217,25.381,515.839,24.853z M515.117,23.35
	c-0.121,0.187-0.249,0.358-0.424,0.586c-0.251,0.318-0.404,0.497-0.691,0.788c-0.322-0.217-0.49-0.363-0.738-0.66
	c-0.572-0.69-1.654-3.113-2.089-3.812c-0.251-0.4-0.429-0.727-0.581-1.065C512.625,20.122,514.119,21.616,515.117,23.35z
	 M512.823,17.711c-1.41-0.774-2.671-1.371-3.913-1.81l1.762-2.813C511.582,14.346,512.228,15.901,512.823,17.711z M502.608,10.777
	l0.146-1.354c2.699,0.167,4.616,0.783,6.051,1.801l0.165,1.376c0,0-0.711,1.812-1.246,2.929c-0.812-0.229-1.636-0.395-2.504-0.503
	c-0.195-0.502-0.42-1.008-0.719-1.323c-0.68-0.716-1.157-1.062-2.049-1.488L502.608,10.777z M505.552,18.156
	c1.085,0,2.086,0.118,3.003,0.334l0.021,0.62c-0.156,1.021-0.328,1.598-0.756,2.538c-0.312,0.679-0.525,1.049-0.967,1.65
	c-0.358-0.312-3.848-2.917-4.316-2.923c-0.329,0.988-1.697,4.43-2.359,5.346l-0.25,0.062c-0.258-0.96-0.576-1.536-1.262-2.307
	c-0.568-0.642-0.978-0.95-1.737-1.333l0.257-0.756l0.145-0.823C499.703,18.982,502.375,18.156,505.552,18.156z M501.204,9.396
	c-0.218,1.135-0.724,2.854-0.956,3.395c0.137,0.144,0.793,1.297,0.971,2.042c-1.062,0.02-2.027,0.071-2.939,0.177
	c-1.016-0.759-3.031-2.253-3.952-2.934C496.24,10.55,498.556,9.508,501.204,9.396z M493.349,12.923
	c0.675,0.351,1.145,0.677,1.807,1.235c0.504,0.427,0.811,0.728,1.181,1.171c-2.01,0.438-3.837,1.196-5.938,2.406
	c-0.013-0.137-0.027-0.275-0.062-0.446l-0.079-0.353C491.062,15.502,492.098,14.112,493.349,12.923z M491.1,20.088
	c0.048,0.234,0.106,0.473,0.198,0.762c0.146,0.442,0.771,1.587,1.165,2.282c-0.788,1.114-1.502,2.253-2.202,3.437
	c-0.602-0.577-1.017-0.966-1.689-1.59c-0.246-0.229-1.038-0.79-1.465-1.126C488.222,22.461,489.63,21.167,491.1,20.088z
	 M485.801,25.747c0.126-0.222,0.261-0.439,0.405-0.663c0.215,0.535,0.443,0.924,0.84,1.465c0.359,0.491,1.551,1.202,2.273,1.694
	c-0.781,1.479-1.352,2.828-1.782,4.222l-3.219,0.813C483.927,30.782,484.341,28.312,485.801,25.747z M484.539,34.376
	c0.33-0.136,0.621-0.214,1.046-0.293c0.599-0.107,1.022-0.14,1.53-0.086c-0.344,1.428-0.59,2.961-0.816,4.763
	C485.494,37.269,484.887,35.815,484.539,34.376z M489.021,59.385c-0.622,0.008-0.979-0.021-1.594-0.111
	c0.001-0.001-1.493-1.724-1.521-3.905c1.188,0.907,1.914,1.365,3.243,2.058c1.198,0.627,1.913,0.935,3.194,1.366
	C491.108,59.237,490.339,59.375,489.021,59.385z M493.447,58.476c-1.539-0.81-2.772-1.812-3.69-3.003
	c0.428-0.117,0.78-0.234,1.287-0.424c0.717-0.262,1.113-0.431,1.799-0.768c-0.104-1.059-0.291-1.674-0.795-2.611
	c-0.328-0.605-0.798-0.792-1.032-1.439c-0.148-0.424-0.193-0.689-0.188-1.145c0.601-0.092,0.973-0.062,1.553,0.109
	c0.506,0.152,0.748,0.354,1.197,0.631c0.551,0.339,0.88,0.577,1.319,0.962C493.766,53.287,493.323,56.143,493.447,58.476z
	 M497.513,63.49c-0.896-0.755-1.572-1.916-1.987-3.263l2.999-0.544C497.876,60.829,497.533,62.125,497.513,63.49z M499.626,58.191
	l-4.438,0.562c-0.307-1.917-0.126-4.022,0.613-5.817c1.57,0.161,2.55,0.439,4.041,1.146c1.285,0.605,2.026,1.085,3.013,1.969
	c-0.136,0.049-0.262,0.1-0.383,0.148C501.337,56.707,500.384,57.385,499.626,58.191z M501.824,65.542
	c-1.562-1.268-1.989-3.229-1.104-5.033l1.323,0.359l1.312,1.006C502.384,62.836,501.943,64,501.824,65.542z M504.135,61.228
	l-0.835-1.692l-1.61-0.199c1.723-1.346,4.689-1.269,6.032,0.504C506.329,59.901,504.922,60.677,504.135,61.228z M509.802,56.938
	c-0.417-1.42-1.048-3.021-1.271-3.464c-0.357-0.701-0.751-1.083-1.249-1.543c-0.626,0.334-1.044,0.543-1.584,1.084
	c-0.36,0.355-1.241,1.098-1.479,1.549c-0.286-0.562-0.476-0.863-0.852-1.366c-0.769-1.022-1.314-1.543-2.378-2.249
	c-0.321,0.289-0.468,0.529-0.577,0.948c-0.082,0.312-0.09,0.513-0.032,0.833c-0.792-0.062-1.251-0.189-1.962-0.545
	c-0.669-0.336-1.098-0.646-1.52-1.127c0.359-0.454,0.777-0.861,1.258-1.205c7.378-5.333,13.512,1.708,13.334,8.479
	C511.001,57.773,510.427,57.312,509.802,56.938z M511.151,50.466l-0.455-0.67c0.228-0.688,0.354-1.267,0.479-2.123
	c0.173-1.18,0.208-1.962,0.112-3.003c1.572,1.754,2.748,4.102,3.336,6.975c-0.488-0.434-0.973-0.686-1.698-0.916
	C512.25,50.506,511.744,50.426,511.151,50.466z M512.065,131.704c-1.227,0.662-2.312,0.512-3.566,0.119
	c1.183-0.266,1.852-0.572,2.824-1.295c1.396-1.037,2.064-1.959,2.628-3.605C514.148,128.88,513.828,130.749,512.065,131.704z
	 M514.957,58.031c-0.805-1.938-1.693-3.916-2.704-5.732l2.46-0.188C515.031,53.893,515.127,55.872,514.957,58.031z M517.215,57.677
	c-0.42-3.062-0.932-5.596-1.521-7.694l1.468,0.104C517.219,52.406,517.265,54.757,517.215,57.677z M544.76,18.615
	c3.053,2.667,4.732,6.578,3.566,10.243c-1.488-1.586-2.98-2.826-4.563-3.753c-0.459-0.786-0.629-1.439-0.659-2.436
	C543.051,20.962,543.566,19.688,544.76,18.615z M536.384,49.656c0.496-0.151,2.123-0.678,2.666-0.863
	c0.279,0.753,1.025,3.166,1.068,4.118c0.58-0.312,0.604-0.327,1.26-0.374c0.379-0.027,1.068,0.045,1.443,0.111
	c-0.227,0.483-0.273,1.08-0.52,1.56c-0.432,0.855-0.812,1.339-1.545,1.96c-0.248,0.211-0.43,0.336-0.682,0.456l-0.092-0.389
	c-0.771-2.985-2.729-4.396-5.525-4.994c0.1-1.356,0.059-2.193-0.17-3.582c-0.215-1.335-0.437-2.137-0.916-3.305
	c0.926-0.21,1.92-0.307,2.986-0.264c1.9,0.076,3.932,0.937,5.532,2.199c0.091,0.561,0.194,0.957-0.034,1.729
	c-0.271,0.891-0.434,1.552-0.959,2.479c-0.38-1.223-0.966-3.096-1.266-3.105c-0.438-0.021-2.67,0.804-3.51,0.938
	C536.196,48.736,536.278,49.154,536.384,49.656z M522.006,22.26c0.107,0.848,0.785,1.174,0.824,2.021
	c0.021,0.479-0.021,0.768-0.176,1.223l-4.345-1.155c0.475-1.812,1.355-3.463,2.764-4.645c1.537-1.295,3.379-2.423,5.422-3.256
	c0.01,0.896,0.104,1.507,0.354,2.455c0.162,0.603,0.343,0.917,0.533,1.51c0.271,0.833,0.408,1.312,0.625,2.158
	c-1.35-0.479-2.135-0.696-3.535-0.979c-0.955-0.189-1.5-0.272-2.469-0.376C521.955,21.619,521.955,21.856,522.006,22.26z
	 M523.619,22.621c0.918-0.126,1.502-0.05,2.354,0.312c0.729,0.306,1.167,0.608,1.633,1.156c-1.33,0.484-2.562,1.121-3.695,1.919
	C523.463,24.432,523.258,22.787,523.619,22.621z M525.403,29.447c0.459,0.093,0.832,0.208,1.357,0.409
	c0.793,0.301,1.229,0.523,1.936,1.001c0.031-0.7,0.025-1.103-0.023-1.798c-0.043-0.602-0.088-0.988-0.182-1.495
	c0.848-0.434,1.698-0.791,2.562-1.079c0.396,0.184,0.732,0.39,1.178,0.705c0.652,0.465,0.994,0.783,1.512,1.396l1.104-2.872
	l0.406-0.022c0.104,1.271,0.068,2.083-0.133,3.412c-0.144,0.938-0.266,1.471-0.553,2.379l-3.734-2.711l-0.713,3.751
	c-0.953-0.229-1.498-0.336-2.467-0.487c-0.992-0.154-1.561-0.218-2.561-0.288c0.016,0.676,0.031,1.062,0.088,1.732
	c0.061,0.669,0.104,1.046,0.205,1.71c-0.87,0.502-1.396,0.733-2.354,1.045c-0.828,0.267-1.316,0.375-2.183,0.487
	c-0.179,0.396,0.341,0.603,0.938,1.001c0.42,0.276,0.504,0.646,0.779,1.09c-0.025,0.252,0.047,0.516-0.186,0.625
	c-0.842,0.396-1.244,0.566-2.041,0.93l-1.865,0.835c0.041-0.377,0.094-0.759,0.146-1.144
	C519.04,37.002,522.136,31.933,525.403,29.447z M528.953,22.312c-0.068-1.354-0.17-2.115-0.465-3.437
	c0.91,0.542,1.398,0.897,2.203,1.591c1.026,0.895,1.629,1.528,2.334,2.519c-1.441,0.104-2.787,0.326-4.053,0.669
	C528.986,23.219,528.978,22.844,528.953,22.312z M536.165,29.015c0.436,0.459,0.662,0.738,1.018,1.267
	c0.436,0.636,1.102,2.256,1.156,2.601c0.625-0.649,0.974-1.022,1.582-1.688c0.596-0.652,0.93-1.023,1.51-1.688
	c0.666,0.485,1.793,1.9,2.175,2.63c0.484,0.936,1.416,4.604,1.562,5.164l-0.521-0.399c-0.804-0.604-1.604-1.104-2.421-1.502
	c-0.045-0.626-0.154-1.122-0.396-1.824c-0.25-0.729-0.445-1.131-0.869-1.776c-0.213,0.771-0.344,1.198-0.598,1.953l-0.287,0.823
	c-2.842-0.788-5.799-0.455-9.015,0.796c-2.573,1.002-4.548,2.605-6.019,4.416c-0.508-0.297-0.809-0.539-1.242-0.989
	c-0.562-0.587-0.838-0.985-1.174-1.729c0.869-0.326,1.389-0.457,2.307-0.581c0.691-0.094,1.092-0.112,1.783-0.088
	c-0.053-0.58-0.076-0.907-0.107-1.488c-0.037-0.597-0.057-0.937-0.072-1.533c0.852-0.036,1.34-0.006,2.18,0.133
	c0.744,0.123,1.162,0.232,1.871,0.487c0.221-0.492,0.688-3.312,0.729-3.685c0.396,0.316,3.371,2.729,3.938,2.888
	c-0.004-0.601,0.021-0.94,0.111-1.532C535.526,30.594,535.708,29.992,536.165,29.015z M535.842,25.674
	c1.736-0.021,3.574,0.235,5.568,0.806l0.574,0.175l0.775,0.689c-0.855,0.529-1.314,0.888-2.047,1.582
	c-0.75,0.723-1.133,1.182-1.709,2.042c-0.738-1.086-1.137-1.713-1.803-2.844C536.635,27.166,536.295,26.552,535.842,25.674z
	 M519.87,43.101l1.492-0.646l-0.805-1.245c0.699-0.442,1.133-0.652,1.908-0.935c0.666-0.237,1.062-0.538,1.763-0.443
	c0.26,0.036,0.432,0.081,0.635,0.173c-0.738,0.944-1.35,1.938-1.834,2.933c-0.535,1.082-1.014,2.205-1.438,3.312l-2.389-1.904
	L519.87,43.101z M526.617,40.992l4.031,2.436c-2.328,1.213-4.418,3.146-6.119,5.526l-1.695-1.5
	C523.801,44.951,525.092,42.767,526.617,40.992z M527.607,39.927c1.512-1.488,3.209-2.606,5.018-3.278
	c0.463,0.228,0.809,0.474,1.271,0.879c0.615,0.545,0.926,0.924,1.328,1.643c0.312-0.655,0.475-1.034,0.736-1.709
	c0.238-0.604,0.387-1.018,0.561-1.538c0.432-0.003,0.863,0.021,1.303,0.066c0.562,1.181,1.256,2.886,1.256,2.886l1.303,4.102
	c-0.441-0.223-0.906-0.399-1.391-0.53c-2.152-0.582-4.258-0.494-6.234,0.118c-0.559-0.723-1.971-1.366-1.971-1.366
	C530.246,40.906,528.549,40.232,527.607,39.927z M541.771,43.829c-0.195-0.144-0.396-0.281-0.6-0.41
	c-0.02-0.951-0.037-1.859-0.252-2.812c-0.405-1.801-0.812-2.901-1.65-4.368c0.436,0.104,0.865,0.229,1.305,0.389
	c2.061,0.739,3.771,2.148,4.959,3.88c-0.229,0.381-0.465,0.683-0.832,1.077C543.785,42.582,543.01,43.156,541.771,43.829z
	 M544.846,30.924c-0.553-1.301-0.78-2.154-0.914-3.465c2.027,1.039,3.555,2.522,4.736,4.376c-0.207,0.412-0.445,0.812-0.707,1.184
	c-0.574,0.811-0.99,1.227-1.803,1.798c0.035-0.731-0.318-1.393-0.525-2.091C545.383,31.862,545.201,31.749,544.846,30.924z
	 M540.677,16.164c1.15,0.438,2.23,1.033,3.203,1.75c-0.834,0.771-1.418,1.251-2.41,1.988c-0.439,0.33-0.693,0.51-1.152,0.819
	c-0.93-1.187-1.343-1.981-1.775-3.423c-0.223-0.733-0.328-1.224-0.393-1.897C538.994,15.591,539.838,15.844,540.677,16.164z
	 M539.828,21.494c0.555,0.816,0.811,1.382,1.021,2.289c-1.408-0.469-2.918-0.739-4.562-0.832c0.012-0.57,0.01-0.944-0.004-1.56
	c-0.025-0.981-0.062-1.535-0.154-2.516c0.76,0.173,1.188,0.354,1.849,0.77C538.839,20.189,539.251,20.652,539.828,21.494z
	 M535.137,16.502c-0.625,0.642-0.864,1.105-1.289,1.896c-0.344,0.64-0.508,1.021-0.732,1.71l-1.355-1.001
	c-1.047-0.772-1.676-1.159-2.688-1.979c-0.548-0.438-0.896-0.73-1.352-1.138c2.848-0.955,6.014-1.33,9.246-0.815
	C536.271,15.487,535.764,15.862,535.137,16.502z M528.326,9.25c3.121,0.074,5.129,0.896,7.412,3.022
	c-2.029-0.023-3.65,0.102-5.229,0.457l-2.229-0.566l-1.764-2.871C527.105,9.248,527.709,9.235,528.326,9.25z M524.838,9.523
	c0.486,0.357,1.012,1.021,1.293,1.305c0.666,0.662,1.092,1.213,1.076,2.151c-0.006,0.345-0.053,0.633-0.152,0.896l-0.873,0.393
	c-0.402-0.56-0.812-0.915-1.482-1.34c-0.481-0.303-2.481-1.473-3.294-1.945C522.404,10.25,523.558,9.786,524.838,9.523z
	 M518.843,14.164c0.422-0.178,0.834-0.249,1.393-0.257c0.676-0.01,2.02-0.171,2.354-0.309c0.499-0.203,0.897,0.013,1.352,0.309
	c0.435,0.285,0.646,0.568,0.806,1.059c-2.664,1.373-4.289,2.703-6.408,5.163C518.235,18.27,517.913,16.237,518.843,14.164z
	 M519.34,28.772c-0.022-0.486-0.045-0.76-0.09-1.245c-0.078-0.871-0.143-1.361-0.287-2.228c1.096,0.282,1.717,0.433,2.822,0.664
	c0.678,0.146,1.104,0.23,1.711,0.347c-1.92,1.438-3.572,3.354-5.021,5.78c-0.327-1.144-0.531-2.411-0.577-3.712L519.34,28.772z
	 M518.846,54.37c-0.176-1.501-0.33-2.938-0.438-4.354l1.947-0.203C519.746,51.7,519.264,53.334,518.846,54.37z M519.919,48.257
	c-0.534,0.539-0.935,0.834-1.556,1.127c-0.102-1.431-0.148-2.844-0.127-4.275c0.688,0.228,1.104,0.479,1.662,1
	c0.395,0.368,0.594,0.616,0.859,1.085C520.484,47.641,520.292,47.881,519.919,48.257z M522.428,48.57l1.693,0.972
	c-1.354,2.027-2.437,4.352-3.158,6.801C521.129,53.545,521.635,50.931,522.428,48.57z M523.135,61.321
	c-0.502-0.942-0.979-1.534-0.871-2.596c0.066-0.644,0.199-1.367,0.402-2.146c0.178,0.178,0.35,0.312,0.607,0.479
	c0.408,0.268,0.727,0.414,1.131,0.513C523.76,58.973,523.418,60.37,523.135,61.321z M523.426,56.082
	c-0.219-0.105-0.354-0.188-0.522-0.326c0.455-1.469,1.139-3.057,2.062-4.53c1.852-2.949,4.109-5.384,7.131-6.489
	c0.27,1.043,1.244,3.62,1.244,3.62c-0.041,0.463-0.073,1.874-0.059,2.714c-2.979-0.201-5.125,1.589-7.271,3.978
	c-0.366,0.411-0.688,0.854-0.967,1.312C524.48,56.446,524.008,56.361,523.426,56.082z M533.033,53.106
	c-0.342,0.387-0.592,0.793-0.871,1.368c-0.193,0.399-0.283,0.643-0.402,1.069c-0.314-0.499-0.57-0.756-1.068-1.069
	c-0.337-0.217-0.628-0.354-0.938-0.439C530.789,53.448,531.908,53.112,533.033,53.106z M524.736,61.821
	c0.242-2.176,1.215-4.219,2.584-5.779c0.715,0.195,1.258,0.479,1.961,0.992c0.514,0.375,0.84,0.67,1.174,1.09
	C528.131,58.531,525.82,59.979,524.736,61.821z M534.175,68.631c-2.201-0.144-3.713-0.883-4.354-2.734
	c-0.537-1.553-0.183-4.896,1.764-6.121c0.016,0.452,0.113,0.818,0.264,1.141c-0.196,0.57-0.295,1.062-0.371,1.776
	c-0.143,1.335-0.062,2.142,0.322,3.427l0.76-1.628l0.07-2.534c0.707,0.7,1.576,1.312,1.943,2.605
	C534.888,65.7,534.752,67.143,534.175,68.631z M534.703,58.919c-0.391-0.311-0.84-0.549-1.35-0.691
	c-0.291-0.082-0.594-0.145-0.896-0.18c0.043-1.232,0.193-2.03,0.6-3.287c0.217-0.656,0.391-1.104,0.646-1.615
	c0.254,0.025,0.508,0.072,0.76,0.142c1.523,0.396,2.578,1.604,3.201,3.195c-0.92,0.425-1.514,0.862-2.297,1.673
	C535.086,58.441,534.896,58.658,534.703,58.919z M536.26,61.158c0.754-0.379,1.213-0.838,1.664-1.638
	c0.143-0.244,0.245-0.46,0.323-0.674c0.348,2.702-0.193,5.816-1.512,8.021C537.035,65.015,536.927,62.869,536.26,61.158z
	 M537.072,70.583c1.523-2.316,2.174-3.848,2.771-6.561c0.27-1.199,0.436-2.348,0.5-3.425c0.605,0.457,0.951,0.97,1.22,1.771
	c0.271,0.813,0.022,1.341,0.063,2.196c0.026,0.517,0.048,0.899,0.077,1.309C540.09,67.857,538.367,69.528,537.072,70.583z
	 M546.298,57.284c-0.447,2.221-1.641,4.515-3.094,6.605c-0.188-0.896-0.562-2.31-1.273-3.61c-0.467-0.856-1.075-1.278-1.57-1.555
	c-0.021-0.42-0.062-0.829-0.119-1.229c1.071-0.844,1.932-1.223,3.346-1.507c1.121-0.224,1.85-0.243,2.902-0.062
	C546.453,56.371,546.388,56.823,546.298,57.284z M546.406,50.049c-0.738-1.73-2.094-4.047-4.008-5.713l3.979-2.366
	C547.59,44.528,547.748,47.512,546.406,50.049z M547.683,39.882c0.021-0.758,0.105-1.464,0.277-2.398
	c0.237-1.29,0.944-2.913,1.521-4.21c0.381,0.752,0.721,1.553,1.023,2.396c1.313,3.612,1.564,6.043-0.674,9.831
	C549.466,43.205,548.808,41.435,547.683,39.882z"/>
</svg>
